<?xml version="1.0" encoding="utf-8" standalone="no"?>
<!DOCTYPE svg PUBLIC "-//W3C//DTD SVG 1.1//EN"
  "http://www.w3.org/Graphics/SVG/1.1/DTD/svg11.dtd">
<svg xmlns:xlink="http://www.w3.org/1999/xlink" width="802.337457pt" height="677.381625pt" viewBox="0 0 802.337457 677.381625" xmlns="http://www.w3.org/2000/svg" version="1.1">
 <metadata>
  <rdf:RDF xmlns:dc="http://purl.org/dc/elements/1.1/" xmlns:cc="http://creativecommons.org/ns#" xmlns:rdf="http://www.w3.org/1999/02/22-rdf-syntax-ns#">
   <cc:Work>
    <dc:type rdf:resource="http://purl.org/dc/dcmitype/StillImage"/>
    <dc:date>2025-11-08T14:08:45.054780</dc:date>
    <dc:format>image/svg+xml</dc:format>
    <dc:creator>
     <cc:Agent>
      <dc:title>Matplotlib v3.10.7, https://matplotlib.org/</dc:title>
     </cc:Agent>
    </dc:creator>
   </cc:Work>
  </rdf:RDF>
 </metadata>
 <defs>
  <style type="text/css">*{stroke-linejoin: round; stroke-linecap: butt}</style>
 </defs>
 <g id="figure_1">
  <g id="patch_1">
   <path d="M 0 677.381625 
L 802.337457 677.381625 
L 802.337457 0 
L 0 0 
z
" style="fill: #ffffff"/>
  </g>
  <g id="axes_1">
   <g id="patch_2">
    <path d="M 53.137457 583.781625 
L 611.137457 583.781625 
L 611.137457 84.821625 
L 53.137457 84.821625 
z
" style="fill: #ffffff"/>
   </g>
   <g id="patch_3">
    <path d="M 78.501094 190.031576 
L 205.319276 260.056139 
L 332.137457 163.401071 
L 458.955639 479.8897 
L 585.773821 173.901481 
z
" clip-path="url(#p87ab3c35d2)" style="fill: #1e88e5; opacity: 0.1; stroke: #1e88e5; stroke-linejoin: miter"/>
   </g>
   <g id="patch_4">
    <path d="M 78.501094 172.528202 
L 205.319276 169.114668 
L 332.137457 308.738147 
L 458.955639 510.757078 
L 585.773821 345.028156 
z
" clip-path="url(#p87ab3c35d2)" style="fill: #1e88e5; opacity: 0.05; stroke: #1e88e5; stroke-linejoin: miter"/>
   </g>
   <g id="patch_5">
    <path d="M 78.501094 362.11893 
L 205.319276 450.15637 
L 332.137457 317.021284 
L 458.955639 256.670026 
L 585.773821 414.893952 
z
" clip-path="url(#p87ab3c35d2)" style="fill: #6d4c41; opacity: 0.1; stroke: #6d4c41; stroke-linejoin: miter"/>
   </g>
   <g id="patch_6">
    <path d="M 78.501094 320.847249 
L 205.319276 292.638178 
L 332.137457 370.944919 
L 458.955639 331.236582 
L 585.773821 370.871468 
z
" clip-path="url(#p87ab3c35d2)" style="fill: #6d4c41; opacity: 0.05; stroke: #6d4c41; stroke-linejoin: miter"/>
   </g>
   <g id="patch_7">
    <path d="M 78.501094 486.970878 
L 205.319276 494.44366 
L 332.137457 469.263366 
L 458.955639 129.751252 
L 585.773821 371.782207 
z
" clip-path="url(#p87ab3c35d2)" style="fill: #004d40; opacity: 0.1; stroke: #004d40; stroke-linejoin: miter"/>
   </g>
   <g id="patch_8">
    <path d="M 78.501094 336.838925 
L 205.319276 342.148883 
L 332.137457 383.841088 
L 458.955639 280.821884 
L 585.773821 421.741276 
z
" clip-path="url(#p87ab3c35d2)" style="fill: #004d40; opacity: 0.05; stroke: #004d40; stroke-linejoin: miter"/>
   </g>
   <g id="patch_9">
    <path d="M 78.501094 252.261424 
L 205.319276 217.846389 
L 332.137457 184.632808 
L 458.955639 460.515835 
L 585.773821 250.825093 
z
" clip-path="url(#p87ab3c35d2)" style="fill: #5e35b1; opacity: 0.1; stroke: #5e35b1; stroke-linejoin: miter"/>
   </g>
   <g id="patch_10">
    <path d="M 78.501094 213.490702 
L 205.319276 223.536761 
L 332.137457 262.532779 
L 458.955639 498.210315 
L 585.773821 314.428543 
z
" clip-path="url(#p87ab3c35d2)" style="fill: #5e35b1; opacity: 0.05; stroke: #5e35b1; stroke-linejoin: miter"/>
   </g>
   <g id="matplotlib.axis_1">
    <g id="xtick_1">
     <g id="line2d_1">
      <defs>
       <path id="mb64ba57524" d="M 0 0 
L 0 4 
" style="stroke: #212121; stroke-width: 0.8"/>
      </defs>
      <g>
       <use xlink:href="#mb64ba57524" x="78.501094" y="583.781625" style="fill: #212121; stroke: #212121; stroke-width: 0.8"/>
      </g>
     </g>
     <g id="text_1">
      <!-- Ритмическая -->
      <g style="fill: #212121" transform="translate(39.450234 599.425062) scale(0.11 -0.11)">
       <defs>
        <path id="SegoeUISymbol-420" d="M 519 0 
L 519 4369 
L 3613 4369 
L 3613 0 
L 519 0 
z
M 981 463 
L 3150 463 
L 3150 3906 
L 981 3906 
L 981 463 
z
" transform="scale(0.015625)"/>
        <path id="SegoeUISymbol-438" d="M 519 0 
L 519 4369 
L 3613 4369 
L 3613 0 
L 519 0 
z
M 981 463 
L 3150 463 
L 3150 3906 
L 981 3906 
L 981 463 
z
" transform="scale(0.015625)"/>
        <path id="SegoeUISymbol-442" d="M 519 0 
L 519 4369 
L 3613 4369 
L 3613 0 
L 519 0 
z
M 981 463 
L 3150 463 
L 3150 3906 
L 981 3906 
L 981 463 
z
" transform="scale(0.015625)"/>
        <path id="SegoeUISymbol-43c" d="M 519 0 
L 519 4369 
L 3613 4369 
L 3613 0 
L 519 0 
z
M 981 463 
L 3150 463 
L 3150 3906 
L 981 3906 
L 981 463 
z
" transform="scale(0.015625)"/>
        <path id="SegoeUISymbol-447" d="M 519 0 
L 519 4369 
L 3613 4369 
L 3613 0 
L 519 0 
z
M 981 463 
L 3150 463 
L 3150 3906 
L 981 3906 
L 981 463 
z
" transform="scale(0.015625)"/>
        <path id="SegoeUISymbol-435" d="M 519 0 
L 519 4369 
L 3613 4369 
L 3613 0 
L 519 0 
z
M 981 463 
L 3150 463 
L 3150 3906 
L 981 3906 
L 981 463 
z
" transform="scale(0.015625)"/>
        <path id="SegoeUISymbol-441" d="M 519 0 
L 519 4369 
L 3613 4369 
L 3613 0 
L 519 0 
z
M 981 463 
L 3150 463 
L 3150 3906 
L 981 3906 
L 981 463 
z
" transform="scale(0.015625)"/>
        <path id="SegoeUISymbol-43a" d="M 519 0 
L 519 4369 
L 3613 4369 
L 3613 0 
L 519 0 
z
M 981 463 
L 3150 463 
L 3150 3906 
L 981 3906 
L 981 463 
z
" transform="scale(0.015625)"/>
        <path id="SegoeUISymbol-430" d="M 519 0 
L 519 4369 
L 3613 4369 
L 3613 0 
L 519 0 
z
M 981 463 
L 3150 463 
L 3150 3906 
L 981 3906 
L 981 463 
z
" transform="scale(0.015625)"/>
        <path id="SegoeUISymbol-44f" d="M 519 0 
L 519 4369 
L 3613 4369 
L 3613 0 
L 519 0 
z
M 981 463 
L 3150 463 
L 3150 3906 
L 981 3906 
L 981 463 
z
" transform="scale(0.015625)"/>
       </defs>
       <use xlink:href="#SegoeUISymbol-420"/>
       <use xlink:href="#SegoeUISymbol-438" transform="translate(64.550781 0)"/>
       <use xlink:href="#SegoeUISymbol-442" transform="translate(129.101562 0)"/>
       <use xlink:href="#SegoeUISymbol-43c" transform="translate(193.652344 0)"/>
       <use xlink:href="#SegoeUISymbol-438" transform="translate(258.203125 0)"/>
       <use xlink:href="#SegoeUISymbol-447" transform="translate(322.753906 0)"/>
       <use xlink:href="#SegoeUISymbol-435" transform="translate(387.304688 0)"/>
       <use xlink:href="#SegoeUISymbol-441" transform="translate(451.855469 0)"/>
       <use xlink:href="#SegoeUISymbol-43a" transform="translate(516.40625 0)"/>
       <use xlink:href="#SegoeUISymbol-430" transform="translate(580.957031 0)"/>
       <use xlink:href="#SegoeUISymbol-44f" transform="translate(645.507812 0)"/>
      </g>
      <!-- нестабильность -->
      <g style="fill: #212121" transform="translate(28.8 611.727188) scale(0.11 -0.11)">
       <defs>
        <path id="SegoeUISymbol-43d" d="M 519 0 
L 519 4369 
L 3613 4369 
L 3613 0 
L 519 0 
z
M 981 463 
L 3150 463 
L 3150 3906 
L 981 3906 
L 981 463 
z
" transform="scale(0.015625)"/>
        <path id="SegoeUISymbol-431" d="M 519 0 
L 519 4369 
L 3613 4369 
L 3613 0 
L 519 0 
z
M 981 463 
L 3150 463 
L 3150 3906 
L 981 3906 
L 981 463 
z
" transform="scale(0.015625)"/>
        <path id="SegoeUISymbol-43b" d="M 519 0 
L 519 4369 
L 3613 4369 
L 3613 0 
L 519 0 
z
M 981 463 
L 3150 463 
L 3150 3906 
L 981 3906 
L 981 463 
z
" transform="scale(0.015625)"/>
        <path id="SegoeUISymbol-44c" d="M 519 0 
L 519 4369 
L 3613 4369 
L 3613 0 
L 519 0 
z
M 981 463 
L 3150 463 
L 3150 3906 
L 981 3906 
L 981 463 
z
" transform="scale(0.015625)"/>
        <path id="SegoeUISymbol-43e" d="M 519 0 
L 519 4369 
L 3613 4369 
L 3613 0 
L 519 0 
z
M 981 463 
L 3150 463 
L 3150 3906 
L 981 3906 
L 981 463 
z
" transform="scale(0.015625)"/>
       </defs>
       <use xlink:href="#SegoeUISymbol-43d"/>
       <use xlink:href="#SegoeUISymbol-435" transform="translate(64.550781 0)"/>
       <use xlink:href="#SegoeUISymbol-441" transform="translate(129.101562 0)"/>
       <use xlink:href="#SegoeUISymbol-442" transform="translate(193.652344 0)"/>
       <use xlink:href="#SegoeUISymbol-430" transform="translate(258.203125 0)"/>
       <use xlink:href="#SegoeUISymbol-431" transform="translate(322.753906 0)"/>
       <use xlink:href="#SegoeUISymbol-438" transform="translate(387.304688 0)"/>
       <use xlink:href="#SegoeUISymbol-43b" transform="translate(451.855469 0)"/>
       <use xlink:href="#SegoeUISymbol-44c" transform="translate(516.40625 0)"/>
       <use xlink:href="#SegoeUISymbol-43d" transform="translate(580.957031 0)"/>
       <use xlink:href="#SegoeUISymbol-43e" transform="translate(645.507812 0)"/>
       <use xlink:href="#SegoeUISymbol-441" transform="translate(710.058594 0)"/>
       <use xlink:href="#SegoeUISymbol-442" transform="translate(774.609375 0)"/>
       <use xlink:href="#SegoeUISymbol-44c" transform="translate(839.160156 0)"/>
      </g>
     </g>
    </g>
    <g id="xtick_2">
     <g id="line2d_2">
      <g>
       <use xlink:href="#mb64ba57524" x="205.319276" y="583.781625" style="fill: #212121; stroke: #212121; stroke-width: 0.8"/>
      </g>
     </g>
     <g id="text_2">
      <!-- Модальная -->
      <g style="fill: #212121" transform="translate(173.368572 599.425062) scale(0.11 -0.11)">
       <defs>
        <path id="SegoeUISymbol-41c" d="M 519 0 
L 519 4369 
L 3613 4369 
L 3613 0 
L 519 0 
z
M 981 463 
L 3150 463 
L 3150 3906 
L 981 3906 
L 981 463 
z
" transform="scale(0.015625)"/>
        <path id="SegoeUISymbol-434" d="M 519 0 
L 519 4369 
L 3613 4369 
L 3613 0 
L 519 0 
z
M 981 463 
L 3150 463 
L 3150 3906 
L 981 3906 
L 981 463 
z
" transform="scale(0.015625)"/>
       </defs>
       <use xlink:href="#SegoeUISymbol-41c"/>
       <use xlink:href="#SegoeUISymbol-43e" transform="translate(64.550781 0)"/>
       <use xlink:href="#SegoeUISymbol-434" transform="translate(129.101562 0)"/>
       <use xlink:href="#SegoeUISymbol-430" transform="translate(193.652344 0)"/>
       <use xlink:href="#SegoeUISymbol-43b" transform="translate(258.203125 0)"/>
       <use xlink:href="#SegoeUISymbol-44c" transform="translate(322.753906 0)"/>
       <use xlink:href="#SegoeUISymbol-43d" transform="translate(387.304688 0)"/>
       <use xlink:href="#SegoeUISymbol-430" transform="translate(451.855469 0)"/>
       <use xlink:href="#SegoeUISymbol-44f" transform="translate(516.40625 0)"/>
      </g>
      <!-- неожиданность -->
      <g style="fill: #212121" transform="translate(159.16826 611.727188) scale(0.11 -0.11)">
       <defs>
        <path id="SegoeUISymbol-436" d="M 519 0 
L 519 4369 
L 3613 4369 
L 3613 0 
L 519 0 
z
M 981 463 
L 3150 463 
L 3150 3906 
L 981 3906 
L 981 463 
z
" transform="scale(0.015625)"/>
       </defs>
       <use xlink:href="#SegoeUISymbol-43d"/>
       <use xlink:href="#SegoeUISymbol-435" transform="translate(64.550781 0)"/>
       <use xlink:href="#SegoeUISymbol-43e" transform="translate(129.101562 0)"/>
       <use xlink:href="#SegoeUISymbol-436" transform="translate(193.652344 0)"/>
       <use xlink:href="#SegoeUISymbol-438" transform="translate(258.203125 0)"/>
       <use xlink:href="#SegoeUISymbol-434" transform="translate(322.753906 0)"/>
       <use xlink:href="#SegoeUISymbol-430" transform="translate(387.304688 0)"/>
       <use xlink:href="#SegoeUISymbol-43d" transform="translate(451.855469 0)"/>
       <use xlink:href="#SegoeUISymbol-43d" transform="translate(516.40625 0)"/>
       <use xlink:href="#SegoeUISymbol-43e" transform="translate(580.957031 0)"/>
       <use xlink:href="#SegoeUISymbol-441" transform="translate(645.507812 0)"/>
       <use xlink:href="#SegoeUISymbol-442" transform="translate(710.058594 0)"/>
       <use xlink:href="#SegoeUISymbol-44c" transform="translate(774.609375 0)"/>
      </g>
     </g>
    </g>
    <g id="xtick_3">
     <g id="line2d_3">
      <g>
       <use xlink:href="#mb64ba57524" x="332.137457" y="583.781625" style="fill: #212121; stroke: #212121; stroke-width: 0.8"/>
      </g>
     </g>
     <g id="text_3">
      <!-- Тональная -->
      <g style="fill: #212121" transform="translate(300.186754 599.425062) scale(0.11 -0.11)">
       <defs>
        <path id="SegoeUISymbol-422" d="M 519 0 
L 519 4369 
L 3613 4369 
L 3613 0 
L 519 0 
z
M 981 463 
L 3150 463 
L 3150 3906 
L 981 3906 
L 981 463 
z
" transform="scale(0.015625)"/>
       </defs>
       <use xlink:href="#SegoeUISymbol-422"/>
       <use xlink:href="#SegoeUISymbol-43e" transform="translate(64.550781 0)"/>
       <use xlink:href="#SegoeUISymbol-43d" transform="translate(129.101562 0)"/>
       <use xlink:href="#SegoeUISymbol-430" transform="translate(193.652344 0)"/>
       <use xlink:href="#SegoeUISymbol-43b" transform="translate(258.203125 0)"/>
       <use xlink:href="#SegoeUISymbol-44c" transform="translate(322.753906 0)"/>
       <use xlink:href="#SegoeUISymbol-43d" transform="translate(387.304688 0)"/>
       <use xlink:href="#SegoeUISymbol-430" transform="translate(451.855469 0)"/>
       <use xlink:href="#SegoeUISymbol-44f" transform="translate(516.40625 0)"/>
      </g>
      <!-- плотность -->
      <g style="fill: #212121" transform="translate(300.186754 611.727188) scale(0.11 -0.11)">
       <defs>
        <path id="SegoeUISymbol-43f" d="M 519 0 
L 519 4369 
L 3613 4369 
L 3613 0 
L 519 0 
z
M 981 463 
L 3150 463 
L 3150 3906 
L 981 3906 
L 981 463 
z
" transform="scale(0.015625)"/>
       </defs>
       <use xlink:href="#SegoeUISymbol-43f"/>
       <use xlink:href="#SegoeUISymbol-43b" transform="translate(64.550781 0)"/>
       <use xlink:href="#SegoeUISymbol-43e" transform="translate(129.101562 0)"/>
       <use xlink:href="#SegoeUISymbol-442" transform="translate(193.652344 0)"/>
       <use xlink:href="#SegoeUISymbol-43d" transform="translate(258.203125 0)"/>
       <use xlink:href="#SegoeUISymbol-43e" transform="translate(322.753906 0)"/>
       <use xlink:href="#SegoeUISymbol-441" transform="translate(387.304688 0)"/>
       <use xlink:href="#SegoeUISymbol-442" transform="translate(451.855469 0)"/>
       <use xlink:href="#SegoeUISymbol-44c" transform="translate(516.40625 0)"/>
      </g>
     </g>
    </g>
    <g id="xtick_4">
     <g id="line2d_4">
      <g>
       <use xlink:href="#mb64ba57524" x="458.955639" y="583.781625" style="fill: #212121; stroke: #212121; stroke-width: 0.8"/>
      </g>
     </g>
     <g id="text_4">
      <!-- Паузная -->
      <g style="fill: #212121" transform="translate(434.105092 599.425062) scale(0.11 -0.11)">
       <defs>
        <path id="SegoeUISymbol-41f" d="M 519 0 
L 519 4369 
L 3613 4369 
L 3613 0 
L 519 0 
z
M 981 463 
L 3150 463 
L 3150 3906 
L 981 3906 
L 981 463 
z
" transform="scale(0.015625)"/>
        <path id="SegoeUISymbol-443" d="M 519 0 
L 519 4369 
L 3613 4369 
L 3613 0 
L 519 0 
z
M 981 463 
L 3150 463 
L 3150 3906 
L 981 3906 
L 981 463 
z
" transform="scale(0.015625)"/>
        <path id="SegoeUISymbol-437" d="M 519 0 
L 519 4369 
L 3613 4369 
L 3613 0 
L 519 0 
z
M 981 463 
L 3150 463 
L 3150 3906 
L 981 3906 
L 981 463 
z
" transform="scale(0.015625)"/>
       </defs>
       <use xlink:href="#SegoeUISymbol-41f"/>
       <use xlink:href="#SegoeUISymbol-430" transform="translate(64.550781 0)"/>
       <use xlink:href="#SegoeUISymbol-443" transform="translate(129.101562 0)"/>
       <use xlink:href="#SegoeUISymbol-437" transform="translate(193.652344 0)"/>
       <use xlink:href="#SegoeUISymbol-43d" transform="translate(258.203125 0)"/>
       <use xlink:href="#SegoeUISymbol-430" transform="translate(322.753906 0)"/>
       <use xlink:href="#SegoeUISymbol-44f" transform="translate(387.304688 0)"/>
      </g>
      <!-- структура (ма) -->
      <g style="fill: #212121" transform="translate(415.079389 611.727188) scale(0.11 -0.11)">
       <defs>
        <path id="SegoeUISymbol-440" d="M 519 0 
L 519 4369 
L 3613 4369 
L 3613 0 
L 519 0 
z
M 981 463 
L 3150 463 
L 3150 3906 
L 981 3906 
L 981 463 
z
" transform="scale(0.015625)"/>
        <path id="SegoeUISymbol-20" transform="scale(0.015625)"/>
        <path id="SegoeUISymbol-28" d="M 1863 -1019 
L 1406 -1019 
Q 438 88 438 1709 
Q 438 3338 1406 4481 
L 1869 4481 
Q 888 3294 888 1716 
Q 888 150 1863 -1019 
z
" transform="scale(0.015625)"/>
        <path id="SegoeUISymbol-29" d="M 531 -1019 
L 75 -1019 
Q 1050 150 1050 1716 
Q 1050 3294 69 4481 
L 531 4481 
Q 1506 3338 1506 1709 
Q 1506 88 531 -1019 
z
" transform="scale(0.015625)"/>
       </defs>
       <use xlink:href="#SegoeUISymbol-441"/>
       <use xlink:href="#SegoeUISymbol-442" transform="translate(64.550781 0)"/>
       <use xlink:href="#SegoeUISymbol-440" transform="translate(129.101562 0)"/>
       <use xlink:href="#SegoeUISymbol-443" transform="translate(193.652344 0)"/>
       <use xlink:href="#SegoeUISymbol-43a" transform="translate(258.203125 0)"/>
       <use xlink:href="#SegoeUISymbol-442" transform="translate(322.753906 0)"/>
       <use xlink:href="#SegoeUISymbol-443" transform="translate(387.304688 0)"/>
       <use xlink:href="#SegoeUISymbol-440" transform="translate(451.855469 0)"/>
       <use xlink:href="#SegoeUISymbol-430" transform="translate(516.40625 0)"/>
       <use xlink:href="#SegoeUISymbol-20" transform="translate(580.957031 0)"/>
       <use xlink:href="#SegoeUISymbol-28" transform="translate(608.349609 0)"/>
       <use xlink:href="#SegoeUISymbol-43c" transform="translate(638.525391 0)"/>
       <use xlink:href="#SegoeUISymbol-430" transform="translate(703.076172 0)"/>
       <use xlink:href="#SegoeUISymbol-29" transform="translate(767.626953 0)"/>
      </g>
     </g>
    </g>
    <g id="xtick_5">
     <g id="line2d_5">
      <g>
       <use xlink:href="#mb64ba57524" x="585.773821" y="583.781625" style="fill: #212121; stroke: #212121; stroke-width: 0.8"/>
      </g>
     </g>
     <g id="text_5">
      <!-- Голосовая -->
      <g style="fill: #212121" transform="translate(553.823118 599.425062) scale(0.11 -0.11)">
       <defs>
        <path id="SegoeUISymbol-413" d="M 519 0 
L 519 4369 
L 3613 4369 
L 3613 0 
L 519 0 
z
M 981 463 
L 3150 463 
L 3150 3906 
L 981 3906 
L 981 463 
z
" transform="scale(0.015625)"/>
        <path id="SegoeUISymbol-432" d="M 519 0 
L 519 4369 
L 3613 4369 
L 3613 0 
L 519 0 
z
M 981 463 
L 3150 463 
L 3150 3906 
L 981 3906 
L 981 463 
z
" transform="scale(0.015625)"/>
       </defs>
       <use xlink:href="#SegoeUISymbol-413"/>
       <use xlink:href="#SegoeUISymbol-43e" transform="translate(64.550781 0)"/>
       <use xlink:href="#SegoeUISymbol-43b" transform="translate(129.101562 0)"/>
       <use xlink:href="#SegoeUISymbol-43e" transform="translate(193.652344 0)"/>
       <use xlink:href="#SegoeUISymbol-441" transform="translate(258.203125 0)"/>
       <use xlink:href="#SegoeUISymbol-43e" transform="translate(322.753906 0)"/>
       <use xlink:href="#SegoeUISymbol-432" transform="translate(387.304688 0)"/>
       <use xlink:href="#SegoeUISymbol-430" transform="translate(451.855469 0)"/>
       <use xlink:href="#SegoeUISymbol-44f" transform="translate(516.40625 0)"/>
      </g>
      <!-- автономия -->
      <g style="fill: #212121" transform="translate(553.823118 611.727188) scale(0.11 -0.11)">
       <use xlink:href="#SegoeUISymbol-430"/>
       <use xlink:href="#SegoeUISymbol-432" transform="translate(64.550781 0)"/>
       <use xlink:href="#SegoeUISymbol-442" transform="translate(129.101562 0)"/>
       <use xlink:href="#SegoeUISymbol-43e" transform="translate(193.652344 0)"/>
       <use xlink:href="#SegoeUISymbol-43d" transform="translate(258.203125 0)"/>
       <use xlink:href="#SegoeUISymbol-43e" transform="translate(322.753906 0)"/>
       <use xlink:href="#SegoeUISymbol-43c" transform="translate(387.304688 0)"/>
       <use xlink:href="#SegoeUISymbol-438" transform="translate(451.855469 0)"/>
       <use xlink:href="#SegoeUISymbol-44f" transform="translate(516.40625 0)"/>
      </g>
     </g>
    </g>
   </g>
   <g id="matplotlib.axis_2">
    <g id="ytick_1">
     <g id="line2d_6">
      <defs>
       <path id="m0ac84ee911" d="M 0 0 
L -4 0 
" style="stroke: #212121; stroke-width: 0.8"/>
      </defs>
      <g>
       <use xlink:href="#m0ac84ee911" x="53.137457" y="483.989625" style="fill: #212121; stroke: #212121; stroke-width: 0.8"/>
      </g>
     </g>
     <g id="text_6">
      <!-- 0.2 -->
      <g style="fill: #808080" transform="translate(33.982457 487.321031) scale(0.09 -0.09)">
       <defs>
        <path id="SegoeUISymbol-30" d="M 3188 2259 
Q 3188 1697 3086 1262 
Q 2984 828 2792 529 
Q 2600 231 2320 76 
Q 2041 -78 1684 -78 
Q 1347 -78 1083 70 
Q 819 219 637 503 
Q 456 788 362 1202 
Q 269 1616 269 2150 
Q 269 2738 367 3188 
Q 466 3638 656 3942 
Q 847 4247 1130 4401 
Q 1413 4556 1778 4556 
Q 3188 4556 3188 2259 
z
M 2663 2209 
Q 2663 4122 1753 4122 
Q 794 4122 794 2175 
Q 794 359 1734 359 
Q 2663 359 2663 2209 
z
" transform="scale(0.015625)"/>
        <path id="SegoeUISymbol-2e" d="M 697 -69 
Q 553 -69 451 34 
Q 350 138 350 281 
Q 350 425 451 529 
Q 553 634 697 634 
Q 844 634 947 529 
Q 1050 425 1050 281 
Q 1050 138 947 34 
Q 844 -69 697 -69 
z
" transform="scale(0.015625)"/>
        <path id="SegoeUISymbol-32" d="M 2413 3306 
Q 2413 3513 2348 3666 
Q 2284 3819 2173 3920 
Q 2063 4022 1913 4072 
Q 1763 4122 1588 4122 
Q 1438 4122 1294 4081 
Q 1150 4041 1014 3969 
Q 878 3897 751 3797 
Q 625 3697 516 3575 
L 516 4125 
Q 731 4334 998 4445 
Q 1266 4556 1650 4556 
Q 1925 4556 2159 4476 
Q 2394 4397 2566 4244 
Q 2738 4091 2836 3866 
Q 2934 3641 2934 3350 
Q 2934 3084 2873 2868 
Q 2813 2653 2689 2462 
Q 2566 2272 2378 2097 
Q 2191 1922 1938 1741 
Q 1622 1516 1417 1356 
Q 1213 1197 1092 1058 
Q 972 919 923 780 
Q 875 641 875 459 
L 3106 459 
L 3106 0 
L 341 0 
L 341 222 
Q 341 509 403 728 
Q 466 947 609 1144 
Q 753 1341 986 1537 
Q 1219 1734 1556 1981 
Q 1800 2156 1964 2315 
Q 2128 2475 2228 2634 
Q 2328 2794 2370 2958 
Q 2413 3122 2413 3306 
z
" transform="scale(0.015625)"/>
       </defs>
       <use xlink:href="#SegoeUISymbol-30"/>
       <use xlink:href="#SegoeUISymbol-2e" transform="translate(53.90625 0)"/>
       <use xlink:href="#SegoeUISymbol-32" transform="translate(75.585938 0)"/>
      </g>
     </g>
    </g>
    <g id="ytick_2">
     <g id="line2d_7">
      <g>
       <use xlink:href="#m0ac84ee911" x="53.137457" y="384.197625" style="fill: #212121; stroke: #212121; stroke-width: 0.8"/>
      </g>
     </g>
     <g id="text_7">
      <!-- 0.4 -->
      <g style="fill: #808080" transform="translate(33.982457 387.529031) scale(0.09 -0.09)">
       <defs>
        <path id="SegoeUISymbol-34" d="M 2656 4481 
L 2656 1522 
L 3231 1522 
L 3231 1053 
L 2656 1053 
L 2656 0 
L 2150 0 
L 2150 1053 
L 44 1053 
L 44 1497 
Q 338 1828 638 2204 
Q 938 2581 1211 2968 
Q 1484 3356 1717 3742 
Q 1950 4128 2109 4481 
L 2656 4481 
z
M 622 1522 
L 2150 1522 
L 2150 3716 
Q 1916 3306 1706 2984 
Q 1497 2663 1308 2400 
Q 1119 2138 947 1925 
Q 775 1713 622 1522 
z
" transform="scale(0.015625)"/>
       </defs>
       <use xlink:href="#SegoeUISymbol-30"/>
       <use xlink:href="#SegoeUISymbol-2e" transform="translate(53.90625 0)"/>
       <use xlink:href="#SegoeUISymbol-34" transform="translate(75.585938 0)"/>
      </g>
     </g>
    </g>
    <g id="ytick_3">
     <g id="line2d_8">
      <g>
       <use xlink:href="#m0ac84ee911" x="53.137457" y="284.405625" style="fill: #212121; stroke: #212121; stroke-width: 0.8"/>
      </g>
     </g>
     <g id="text_8">
      <!-- 0.6 -->
      <g style="fill: #808080" transform="translate(33.982457 287.737031) scale(0.09 -0.09)">
       <defs>
        <path id="SegoeUISymbol-36" d="M 3194 1422 
Q 3194 1094 3087 819 
Q 2981 544 2793 344 
Q 2606 144 2347 33 
Q 2088 -78 1784 -78 
Q 1447 -78 1180 62 
Q 913 203 727 467 
Q 541 731 444 1112 
Q 347 1494 347 1972 
Q 347 2556 476 3032 
Q 606 3509 845 3848 
Q 1084 4188 1421 4372 
Q 1759 4556 2175 4556 
Q 2638 4556 2919 4428 
L 2919 3944 
Q 2572 4122 2188 4122 
Q 1888 4122 1647 3987 
Q 1406 3853 1234 3608 
Q 1063 3363 970 3016 
Q 878 2669 878 2244 
L 891 2244 
Q 1200 2803 1913 2803 
Q 2206 2803 2442 2703 
Q 2678 2603 2845 2420 
Q 3013 2238 3103 1984 
Q 3194 1731 3194 1422 
z
M 2669 1356 
Q 2669 1591 2609 1778 
Q 2550 1966 2439 2097 
Q 2328 2228 2165 2298 
Q 2003 2369 1797 2369 
Q 1606 2369 1443 2297 
Q 1281 2225 1162 2101 
Q 1044 1978 976 1814 
Q 909 1650 909 1466 
Q 909 1234 975 1032 
Q 1041 831 1159 681 
Q 1278 531 1442 445 
Q 1606 359 1806 359 
Q 2000 359 2159 432 
Q 2319 506 2431 637 
Q 2544 769 2606 951 
Q 2669 1134 2669 1356 
z
" transform="scale(0.015625)"/>
       </defs>
       <use xlink:href="#SegoeUISymbol-30"/>
       <use xlink:href="#SegoeUISymbol-2e" transform="translate(53.90625 0)"/>
       <use xlink:href="#SegoeUISymbol-36" transform="translate(75.585938 0)"/>
      </g>
     </g>
    </g>
    <g id="ytick_4">
     <g id="line2d_9">
      <g>
       <use xlink:href="#m0ac84ee911" x="53.137457" y="184.613625" style="fill: #212121; stroke: #212121; stroke-width: 0.8"/>
      </g>
     </g>
     <g id="text_9">
      <!-- 0.8 -->
      <g style="fill: #808080" transform="translate(33.982457 187.945031) scale(0.09 -0.09)">
       <defs>
        <path id="SegoeUISymbol-38" d="M 281 1250 
Q 281 1428 337 1608 
Q 394 1788 498 1944 
Q 603 2100 758 2228 
Q 913 2356 1109 2431 
Q 819 2594 647 2848 
Q 475 3103 475 3413 
Q 475 3659 570 3868 
Q 666 4078 834 4231 
Q 1003 4384 1234 4470 
Q 1466 4556 1734 4556 
Q 2006 4556 2237 4468 
Q 2469 4381 2637 4228 
Q 2806 4075 2900 3865 
Q 2994 3656 2994 3413 
Q 2994 3103 2822 2848 
Q 2650 2594 2366 2431 
Q 2559 2356 2712 2228 
Q 2866 2100 2970 1944 
Q 3075 1788 3131 1608 
Q 3188 1428 3188 1250 
Q 3188 956 3081 712 
Q 2975 469 2783 295 
Q 2591 122 2323 25 
Q 2056 -72 1734 -72 
Q 1416 -72 1150 25 
Q 884 122 690 295 
Q 497 469 389 712 
Q 281 956 281 1250 
z
M 838 1294 
Q 838 1084 902 915 
Q 966 747 1083 628 
Q 1200 509 1367 445 
Q 1534 381 1738 381 
Q 1934 381 2100 447 
Q 2266 513 2386 631 
Q 2506 750 2573 919 
Q 2641 1088 2641 1294 
Q 2641 1481 2577 1645 
Q 2513 1809 2394 1934 
Q 2275 2059 2109 2131 
Q 1944 2203 1738 2203 
Q 1544 2203 1380 2136 
Q 1216 2069 1095 1948 
Q 975 1828 906 1661 
Q 838 1494 838 1294 
z
M 997 3372 
Q 997 3213 1055 3077 
Q 1113 2941 1214 2839 
Q 1316 2738 1450 2680 
Q 1584 2622 1738 2622 
Q 1891 2622 2027 2681 
Q 2163 2741 2263 2842 
Q 2363 2944 2422 3080 
Q 2481 3216 2481 3372 
Q 2481 3534 2423 3671 
Q 2366 3809 2266 3909 
Q 2166 4009 2030 4067 
Q 1894 4125 1738 4125 
Q 1572 4125 1436 4065 
Q 1300 4006 1201 3904 
Q 1103 3803 1050 3665 
Q 997 3528 997 3372 
z
" transform="scale(0.015625)"/>
       </defs>
       <use xlink:href="#SegoeUISymbol-30"/>
       <use xlink:href="#SegoeUISymbol-2e" transform="translate(53.90625 0)"/>
       <use xlink:href="#SegoeUISymbol-38" transform="translate(75.585938 0)"/>
      </g>
     </g>
    </g>
   </g>
   <g id="patch_11">
    <path d="M 53.137457 583.781625 
L 53.137457 84.821625 
" style="fill: none; stroke: #212121; stroke-width: 0.8; stroke-linejoin: miter; stroke-linecap: square"/>
   </g>
   <g id="patch_12">
    <path d="M 53.137457 583.781625 
L 611.137457 583.781625 
" style="fill: none; stroke: #212121; stroke-width: 0.8; stroke-linejoin: miter; stroke-linecap: square"/>
   </g>
   <g id="patch_13">
    <path d="M 219.993556 190.364271 
Q 189.62342 163.207492 160.2534 136.94501 
" style="fill: none; opacity: 0.8; stroke: #1e88e5; stroke-width: 1.2; stroke-linecap: round"/>
    <path d="M 161.984462 141.310033 
L 160.2534 136.94501 
L 164.784056 138.179174 
" style="fill: none; opacity: 0.8; stroke: #1e88e5; stroke-width: 1.2; stroke-linecap: round"/>
   </g>
   <g id="text_10">
    <g id="patch_14">
     <path d="M 161.115309 226.827234 
L 321.809606 226.827234 
Q 328.109606 226.827234 328.109606 220.527234 
L 328.109606 198.596016 
Q 328.109606 192.296016 321.809606 192.296016 
L 161.115309 192.296016 
Q 154.815309 192.296016 154.815309 198.596016 
L 154.815309 220.527234 
Q 154.815309 226.827234 161.115309 226.827234 
z
" style="fill: #ffffff; opacity: 0.9; stroke: #1e88e5; stroke-width: 1.2; stroke-linejoin: miter"/>
    </g>
    <!-- [R] Зона интенциональности -->
    <g style="fill: #1e88e5" transform="translate(161.115309 206.369297) scale(0.105 -0.105)">
     <defs>
      <path id="SegoeUISymbol-5b" d="M 1775 -1019 
L 625 -1019 
L 625 4481 
L 1775 4481 
L 1775 4109 
L 1081 4109 
L 1081 -647 
L 1775 -647 
L 1775 -1019 
z
" transform="scale(0.015625)"/>
      <path id="SegoeUISymbol-52" d="M 3800 0 
L 3175 0 
L 2425 1256 
Q 2322 1431 2225 1554 
Q 2128 1678 2026 1756 
Q 1925 1834 1808 1870 
Q 1691 1906 1544 1906 
L 1113 1906 
L 1113 0 
L 588 0 
L 588 4481 
L 1925 4481 
Q 2219 4481 2467 4407 
Q 2716 4334 2898 4184 
Q 3081 4034 3184 3811 
Q 3288 3588 3288 3288 
Q 3288 3053 3217 2858 
Q 3147 2663 3017 2509 
Q 2888 2356 2705 2248 
Q 2522 2141 2294 2081 
L 2294 2069 
Q 2406 2019 2489 1955 
Q 2572 1891 2647 1803 
Q 2722 1716 2795 1605 
Q 2869 1494 2959 1347 
L 3800 0 
z
M 1113 4006 
L 1113 2381 
L 1825 2381 
Q 2022 2381 2189 2440 
Q 2356 2500 2478 2611 
Q 2600 2722 2669 2883 
Q 2738 3044 2738 3244 
Q 2738 3603 2505 3804 
Q 2272 4006 1831 4006 
L 1113 4006 
z
" transform="scale(0.015625)"/>
      <path id="SegoeUISymbol-5d" d="M 1313 -1019 
L 166 -1019 
L 166 -647 
L 856 -647 
L 856 4109 
L 166 4109 
L 166 4481 
L 1313 4481 
L 1313 -1019 
z
" transform="scale(0.015625)"/>
      <path id="SegoeUISymbol-417" d="M 519 0 
L 519 4369 
L 3613 4369 
L 3613 0 
L 519 0 
z
M 981 463 
L 3150 463 
L 3150 3906 
L 981 3906 
L 981 463 
z
" transform="scale(0.015625)"/>
      <path id="SegoeUISymbol-446" d="M 519 0 
L 519 4369 
L 3613 4369 
L 3613 0 
L 519 0 
z
M 981 463 
L 3150 463 
L 3150 3906 
L 981 3906 
L 981 463 
z
" transform="scale(0.015625)"/>
     </defs>
     <use xlink:href="#SegoeUISymbol-5b"/>
     <use xlink:href="#SegoeUISymbol-52" transform="translate(30.175781 0)"/>
     <use xlink:href="#SegoeUISymbol-5d" transform="translate(89.990234 0)"/>
     <use xlink:href="#SegoeUISymbol-20" transform="translate(120.166016 0)"/>
     <use xlink:href="#SegoeUISymbol-417" transform="translate(147.558594 0)"/>
     <use xlink:href="#SegoeUISymbol-43e" transform="translate(212.109375 0)"/>
     <use xlink:href="#SegoeUISymbol-43d" transform="translate(276.660156 0)"/>
     <use xlink:href="#SegoeUISymbol-430" transform="translate(341.210938 0)"/>
     <use xlink:href="#SegoeUISymbol-20" transform="translate(405.761719 0)"/>
     <use xlink:href="#SegoeUISymbol-438" transform="translate(433.154297 0)"/>
     <use xlink:href="#SegoeUISymbol-43d" transform="translate(497.705078 0)"/>
     <use xlink:href="#SegoeUISymbol-442" transform="translate(562.255859 0)"/>
     <use xlink:href="#SegoeUISymbol-435" transform="translate(626.806641 0)"/>
     <use xlink:href="#SegoeUISymbol-43d" transform="translate(691.357422 0)"/>
     <use xlink:href="#SegoeUISymbol-446" transform="translate(755.908203 0)"/>
     <use xlink:href="#SegoeUISymbol-438" transform="translate(820.458984 0)"/>
     <use xlink:href="#SegoeUISymbol-43e" transform="translate(885.009766 0)"/>
     <use xlink:href="#SegoeUISymbol-43d" transform="translate(949.560547 0)"/>
     <use xlink:href="#SegoeUISymbol-430" transform="translate(1014.111328 0)"/>
     <use xlink:href="#SegoeUISymbol-43b" transform="translate(1078.662109 0)"/>
     <use xlink:href="#SegoeUISymbol-44c" transform="translate(1143.212891 0)"/>
     <use xlink:href="#SegoeUISymbol-43d" transform="translate(1207.763672 0)"/>
     <use xlink:href="#SegoeUISymbol-43e" transform="translate(1272.314453 0)"/>
     <use xlink:href="#SegoeUISymbol-441" transform="translate(1336.865234 0)"/>
     <use xlink:href="#SegoeUISymbol-442" transform="translate(1401.416016 0)"/>
     <use xlink:href="#SegoeUISymbol-438" transform="translate(1465.966797 0)"/>
    </g>
    <!-- (русская традиция) -->
    <g style="fill: #1e88e5" transform="translate(186.025739 218.112234) scale(0.105 -0.105)">
     <use xlink:href="#SegoeUISymbol-28"/>
     <use xlink:href="#SegoeUISymbol-440" transform="translate(30.175781 0)"/>
     <use xlink:href="#SegoeUISymbol-443" transform="translate(94.726562 0)"/>
     <use xlink:href="#SegoeUISymbol-441" transform="translate(159.277344 0)"/>
     <use xlink:href="#SegoeUISymbol-441" transform="translate(223.828125 0)"/>
     <use xlink:href="#SegoeUISymbol-43a" transform="translate(288.378906 0)"/>
     <use xlink:href="#SegoeUISymbol-430" transform="translate(352.929688 0)"/>
     <use xlink:href="#SegoeUISymbol-44f" transform="translate(417.480469 0)"/>
     <use xlink:href="#SegoeUISymbol-20" transform="translate(482.03125 0)"/>
     <use xlink:href="#SegoeUISymbol-442" transform="translate(509.423828 0)"/>
     <use xlink:href="#SegoeUISymbol-440" transform="translate(573.974609 0)"/>
     <use xlink:href="#SegoeUISymbol-430" transform="translate(638.525391 0)"/>
     <use xlink:href="#SegoeUISymbol-434" transform="translate(703.076172 0)"/>
     <use xlink:href="#SegoeUISymbol-438" transform="translate(767.626953 0)"/>
     <use xlink:href="#SegoeUISymbol-446" transform="translate(832.177734 0)"/>
     <use xlink:href="#SegoeUISymbol-438" transform="translate(896.728516 0)"/>
     <use xlink:href="#SegoeUISymbol-44f" transform="translate(961.279297 0)"/>
     <use xlink:href="#SegoeUISymbol-29" transform="translate(1025.830078 0)"/>
    </g>
   </g>
   <g id="patch_15">
    <path d="M 370.363408 190.753786 
Q 421.704346 163.208545 471.863049 136.297592 
" style="fill: none; opacity: 0.8; stroke: #004d40; stroke-width: 1.2; stroke-linecap: round"/>
    <path d="M 467.169251 136.432737 
L 471.863049 136.297592 
L 469.154887 140.133717 
" style="fill: none; opacity: 0.8; stroke: #004d40; stroke-width: 1.2; stroke-linecap: round"/>
   </g>
   <g id="text_11">
    <g id="patch_16">
     <path d="M 273.170881 226.827234 
L 397.444943 226.827234 
Q 403.744943 226.827234 403.744943 220.527234 
L 403.744943 198.596016 
Q 403.744943 192.296016 397.444943 192.296016 
L 273.170881 192.296016 
Q 266.870881 192.296016 266.870881 198.596016 
L 266.870881 220.527234 
Q 266.870881 226.827234 273.170881 226.827234 
z
" style="fill: #ffffff; opacity: 0.9; stroke: #004d40; stroke-width: 1.2; stroke-linejoin: miter"/>
    </g>
    <!-- [J] Зона спонтанности -->
    <g style="fill: #004d40" transform="translate(273.170881 206.369297) scale(0.105 -0.105)">
     <defs>
      <path id="SegoeUISymbol-4a" d="M 1734 1606 
Q 1734 809 1396 367 
Q 1059 -75 494 -75 
Q 231 -75 63 0 
L 63 519 
Q 231 397 500 397 
Q 1209 397 1209 1600 
L 1209 4481 
L 1734 4481 
L 1734 1606 
z
" transform="scale(0.015625)"/>
     </defs>
     <use xlink:href="#SegoeUISymbol-5b"/>
     <use xlink:href="#SegoeUISymbol-4a" transform="translate(30.175781 0)"/>
     <use xlink:href="#SegoeUISymbol-5d" transform="translate(65.869141 0)"/>
     <use xlink:href="#SegoeUISymbol-20" transform="translate(96.044922 0)"/>
     <use xlink:href="#SegoeUISymbol-417" transform="translate(123.4375 0)"/>
     <use xlink:href="#SegoeUISymbol-43e" transform="translate(187.988281 0)"/>
     <use xlink:href="#SegoeUISymbol-43d" transform="translate(252.539062 0)"/>
     <use xlink:href="#SegoeUISymbol-430" transform="translate(317.089844 0)"/>
     <use xlink:href="#SegoeUISymbol-20" transform="translate(381.640625 0)"/>
     <use xlink:href="#SegoeUISymbol-441" transform="translate(409.033203 0)"/>
     <use xlink:href="#SegoeUISymbol-43f" transform="translate(473.583984 0)"/>
     <use xlink:href="#SegoeUISymbol-43e" transform="translate(538.134766 0)"/>
     <use xlink:href="#SegoeUISymbol-43d" transform="translate(602.685547 0)"/>
     <use xlink:href="#SegoeUISymbol-442" transform="translate(667.236328 0)"/>
     <use xlink:href="#SegoeUISymbol-430" transform="translate(731.787109 0)"/>
     <use xlink:href="#SegoeUISymbol-43d" transform="translate(796.337891 0)"/>
     <use xlink:href="#SegoeUISymbol-43d" transform="translate(860.888672 0)"/>
     <use xlink:href="#SegoeUISymbol-43e" transform="translate(925.439453 0)"/>
     <use xlink:href="#SegoeUISymbol-441" transform="translate(989.990234 0)"/>
     <use xlink:href="#SegoeUISymbol-442" transform="translate(1054.541016 0)"/>
     <use xlink:href="#SegoeUISymbol-438" transform="translate(1119.091797 0)"/>
    </g>
    <!-- (японская традиция) -->
    <g style="fill: #004d40" transform="translate(276.482482 218.112234) scale(0.105 -0.105)">
     <use xlink:href="#SegoeUISymbol-28"/>
     <use xlink:href="#SegoeUISymbol-44f" transform="translate(30.175781 0)"/>
     <use xlink:href="#SegoeUISymbol-43f" transform="translate(94.726562 0)"/>
     <use xlink:href="#SegoeUISymbol-43e" transform="translate(159.277344 0)"/>
     <use xlink:href="#SegoeUISymbol-43d" transform="translate(223.828125 0)"/>
     <use xlink:href="#SegoeUISymbol-441" transform="translate(288.378906 0)"/>
     <use xlink:href="#SegoeUISymbol-43a" transform="translate(352.929688 0)"/>
     <use xlink:href="#SegoeUISymbol-430" transform="translate(417.480469 0)"/>
     <use xlink:href="#SegoeUISymbol-44f" transform="translate(482.03125 0)"/>
     <use xlink:href="#SegoeUISymbol-20" transform="translate(546.582031 0)"/>
     <use xlink:href="#SegoeUISymbol-442" transform="translate(573.974609 0)"/>
     <use xlink:href="#SegoeUISymbol-440" transform="translate(638.525391 0)"/>
     <use xlink:href="#SegoeUISymbol-430" transform="translate(703.076172 0)"/>
     <use xlink:href="#SegoeUISymbol-434" transform="translate(767.626953 0)"/>
     <use xlink:href="#SegoeUISymbol-438" transform="translate(832.177734 0)"/>
     <use xlink:href="#SegoeUISymbol-446" transform="translate(896.728516 0)"/>
     <use xlink:href="#SegoeUISymbol-438" transform="translate(961.279297 0)"/>
     <use xlink:href="#SegoeUISymbol-44f" transform="translate(1025.830078 0)"/>
     <use xlink:href="#SegoeUISymbol-29" transform="translate(1090.380859 0)"/>
    </g>
   </g>
   <g id="text_12">
    <!-- График 1: Культурные профили эстетической новизны -->
    <g style="fill: #212121" transform="translate(53.137457 39.164375) scale(0.14 -0.14)">
     <defs>
      <path id="SegoeUISymbol-444" d="M 519 0 
L 519 4369 
L 3613 4369 
L 3613 0 
L 519 0 
z
M 981 463 
L 3150 463 
L 3150 3906 
L 981 3906 
L 981 463 
z
" transform="scale(0.015625)"/>
      <path id="SegoeUISymbol-31" d="M 2263 0 
L 1750 0 
L 1750 3872 
Q 1691 3813 1577 3736 
Q 1463 3659 1320 3584 
Q 1178 3509 1020 3443 
Q 863 3378 713 3341 
L 713 3859 
Q 881 3906 1070 3986 
Q 1259 4066 1442 4164 
Q 1625 4263 1787 4370 
Q 1950 4478 2069 4581 
L 2263 4581 
L 2263 0 
z
" transform="scale(0.015625)"/>
      <path id="SegoeUISymbol-3a" d="M 697 2575 
Q 553 2575 451 2678 
Q 350 2781 350 2925 
Q 350 3069 451 3169 
Q 553 3269 697 3269 
Q 844 3269 947 3169 
Q 1050 3069 1050 2925 
Q 1050 2781 947 2678 
Q 844 2575 697 2575 
z
M 697 -69 
Q 553 -69 451 34 
Q 350 138 350 281 
Q 350 425 451 529 
Q 553 634 697 634 
Q 844 634 947 529 
Q 1050 425 1050 281 
Q 1050 138 947 34 
Q 844 -69 697 -69 
z
" transform="scale(0.015625)"/>
      <path id="SegoeUISymbol-41a" d="M 519 0 
L 519 4369 
L 3613 4369 
L 3613 0 
L 519 0 
z
M 981 463 
L 3150 463 
L 3150 3906 
L 981 3906 
L 981 463 
z
" transform="scale(0.015625)"/>
      <path id="SegoeUISymbol-44b" d="M 519 0 
L 519 4369 
L 3613 4369 
L 3613 0 
L 519 0 
z
M 981 463 
L 3150 463 
L 3150 3906 
L 981 3906 
L 981 463 
z
" transform="scale(0.015625)"/>
      <path id="SegoeUISymbol-44d" d="M 519 0 
L 519 4369 
L 3613 4369 
L 3613 0 
L 519 0 
z
M 981 463 
L 3150 463 
L 3150 3906 
L 981 3906 
L 981 463 
z
" transform="scale(0.015625)"/>
      <path id="SegoeUISymbol-439" d="M 519 0 
L 519 4369 
L 3613 4369 
L 3613 0 
L 519 0 
z
M 981 463 
L 3150 463 
L 3150 3906 
L 981 3906 
L 981 463 
z
" transform="scale(0.015625)"/>
     </defs>
     <use xlink:href="#SegoeUISymbol-413"/>
     <use xlink:href="#SegoeUISymbol-440" transform="translate(64.550781 0)"/>
     <use xlink:href="#SegoeUISymbol-430" transform="translate(129.101562 0)"/>
     <use xlink:href="#SegoeUISymbol-444" transform="translate(193.652344 0)"/>
     <use xlink:href="#SegoeUISymbol-438" transform="translate(258.203125 0)"/>
     <use xlink:href="#SegoeUISymbol-43a" transform="translate(322.753906 0)"/>
     <use xlink:href="#SegoeUISymbol-20" transform="translate(387.304688 0)"/>
     <use xlink:href="#SegoeUISymbol-31" transform="translate(414.697266 0)"/>
     <use xlink:href="#SegoeUISymbol-3a" transform="translate(468.603516 0)"/>
     <use xlink:href="#SegoeUISymbol-20" transform="translate(490.283203 0)"/>
     <use xlink:href="#SegoeUISymbol-41a" transform="translate(517.675781 0)"/>
     <use xlink:href="#SegoeUISymbol-443" transform="translate(582.226562 0)"/>
     <use xlink:href="#SegoeUISymbol-43b" transform="translate(646.777344 0)"/>
     <use xlink:href="#SegoeUISymbol-44c" transform="translate(711.328125 0)"/>
     <use xlink:href="#SegoeUISymbol-442" transform="translate(775.878906 0)"/>
     <use xlink:href="#SegoeUISymbol-443" transform="translate(840.429688 0)"/>
     <use xlink:href="#SegoeUISymbol-440" transform="translate(904.980469 0)"/>
     <use xlink:href="#SegoeUISymbol-43d" transform="translate(969.53125 0)"/>
     <use xlink:href="#SegoeUISymbol-44b" transform="translate(1034.082031 0)"/>
     <use xlink:href="#SegoeUISymbol-435" transform="translate(1098.632812 0)"/>
     <use xlink:href="#SegoeUISymbol-20" transform="translate(1163.183594 0)"/>
     <use xlink:href="#SegoeUISymbol-43f" transform="translate(1190.576172 0)"/>
     <use xlink:href="#SegoeUISymbol-440" transform="translate(1255.126953 0)"/>
     <use xlink:href="#SegoeUISymbol-43e" transform="translate(1319.677734 0)"/>
     <use xlink:href="#SegoeUISymbol-444" transform="translate(1384.228516 0)"/>
     <use xlink:href="#SegoeUISymbol-438" transform="translate(1448.779297 0)"/>
     <use xlink:href="#SegoeUISymbol-43b" transform="translate(1513.330078 0)"/>
     <use xlink:href="#SegoeUISymbol-438" transform="translate(1577.880859 0)"/>
     <use xlink:href="#SegoeUISymbol-20" transform="translate(1642.431641 0)"/>
     <use xlink:href="#SegoeUISymbol-44d" transform="translate(1669.824219 0)"/>
     <use xlink:href="#SegoeUISymbol-441" transform="translate(1734.375 0)"/>
     <use xlink:href="#SegoeUISymbol-442" transform="translate(1798.925781 0)"/>
     <use xlink:href="#SegoeUISymbol-435" transform="translate(1863.476562 0)"/>
     <use xlink:href="#SegoeUISymbol-442" transform="translate(1928.027344 0)"/>
     <use xlink:href="#SegoeUISymbol-438" transform="translate(1992.578125 0)"/>
     <use xlink:href="#SegoeUISymbol-447" transform="translate(2057.128906 0)"/>
     <use xlink:href="#SegoeUISymbol-435" transform="translate(2121.679688 0)"/>
     <use xlink:href="#SegoeUISymbol-441" transform="translate(2186.230469 0)"/>
     <use xlink:href="#SegoeUISymbol-43a" transform="translate(2250.78125 0)"/>
     <use xlink:href="#SegoeUISymbol-43e" transform="translate(2315.332031 0)"/>
     <use xlink:href="#SegoeUISymbol-439" transform="translate(2379.882812 0)"/>
     <use xlink:href="#SegoeUISymbol-20" transform="translate(2444.433594 0)"/>
     <use xlink:href="#SegoeUISymbol-43d" transform="translate(2471.826172 0)"/>
     <use xlink:href="#SegoeUISymbol-43e" transform="translate(2536.376953 0)"/>
     <use xlink:href="#SegoeUISymbol-432" transform="translate(2600.927734 0)"/>
     <use xlink:href="#SegoeUISymbol-438" transform="translate(2665.478516 0)"/>
     <use xlink:href="#SegoeUISymbol-437" transform="translate(2730.029297 0)"/>
     <use xlink:href="#SegoeUISymbol-43d" transform="translate(2794.580078 0)"/>
     <use xlink:href="#SegoeUISymbol-44b" transform="translate(2859.130859 0)"/>
    </g>
    <!-- Сравнение человеческого и ИИ-генерированного творчества -->
    <g style="fill: #212121" transform="translate(53.137457 54.821625) scale(0.14 -0.14)">
     <defs>
      <path id="SegoeUISymbol-421" d="M 519 0 
L 519 4369 
L 3613 4369 
L 3613 0 
L 519 0 
z
M 981 463 
L 3150 463 
L 3150 3906 
L 981 3906 
L 981 463 
z
" transform="scale(0.015625)"/>
      <path id="SegoeUISymbol-433" d="M 519 0 
L 519 4369 
L 3613 4369 
L 3613 0 
L 519 0 
z
M 981 463 
L 3150 463 
L 3150 3906 
L 981 3906 
L 981 463 
z
" transform="scale(0.015625)"/>
      <path id="SegoeUISymbol-418" d="M 519 0 
L 519 4369 
L 3613 4369 
L 3613 0 
L 519 0 
z
M 981 463 
L 3150 463 
L 3150 3906 
L 981 3906 
L 981 463 
z
" transform="scale(0.015625)"/>
      <path id="SegoeUISymbol-2d" d="M 2156 1581 
L 450 1581 
L 450 1984 
L 2156 1984 
L 2156 1581 
z
" transform="scale(0.015625)"/>
     </defs>
     <use xlink:href="#SegoeUISymbol-421"/>
     <use xlink:href="#SegoeUISymbol-440" transform="translate(64.550781 0)"/>
     <use xlink:href="#SegoeUISymbol-430" transform="translate(129.101562 0)"/>
     <use xlink:href="#SegoeUISymbol-432" transform="translate(193.652344 0)"/>
     <use xlink:href="#SegoeUISymbol-43d" transform="translate(258.203125 0)"/>
     <use xlink:href="#SegoeUISymbol-435" transform="translate(322.753906 0)"/>
     <use xlink:href="#SegoeUISymbol-43d" transform="translate(387.304688 0)"/>
     <use xlink:href="#SegoeUISymbol-438" transform="translate(451.855469 0)"/>
     <use xlink:href="#SegoeUISymbol-435" transform="translate(516.40625 0)"/>
     <use xlink:href="#SegoeUISymbol-20" transform="translate(580.957031 0)"/>
     <use xlink:href="#SegoeUISymbol-447" transform="translate(608.349609 0)"/>
     <use xlink:href="#SegoeUISymbol-435" transform="translate(672.900391 0)"/>
     <use xlink:href="#SegoeUISymbol-43b" transform="translate(737.451172 0)"/>
     <use xlink:href="#SegoeUISymbol-43e" transform="translate(802.001953 0)"/>
     <use xlink:href="#SegoeUISymbol-432" transform="translate(866.552734 0)"/>
     <use xlink:href="#SegoeUISymbol-435" transform="translate(931.103516 0)"/>
     <use xlink:href="#SegoeUISymbol-447" transform="translate(995.654297 0)"/>
     <use xlink:href="#SegoeUISymbol-435" transform="translate(1060.205078 0)"/>
     <use xlink:href="#SegoeUISymbol-441" transform="translate(1124.755859 0)"/>
     <use xlink:href="#SegoeUISymbol-43a" transform="translate(1189.306641 0)"/>
     <use xlink:href="#SegoeUISymbol-43e" transform="translate(1253.857422 0)"/>
     <use xlink:href="#SegoeUISymbol-433" transform="translate(1318.408203 0)"/>
     <use xlink:href="#SegoeUISymbol-43e" transform="translate(1382.958984 0)"/>
     <use xlink:href="#SegoeUISymbol-20" transform="translate(1447.509766 0)"/>
     <use xlink:href="#SegoeUISymbol-438" transform="translate(1474.902344 0)"/>
     <use xlink:href="#SegoeUISymbol-20" transform="translate(1539.453125 0)"/>
     <use xlink:href="#SegoeUISymbol-418" transform="translate(1566.845703 0)"/>
     <use xlink:href="#SegoeUISymbol-418" transform="translate(1631.396484 0)"/>
     <use xlink:href="#SegoeUISymbol-2d" transform="translate(1695.947266 0)"/>
     <use xlink:href="#SegoeUISymbol-433" transform="translate(1735.9375 0)"/>
     <use xlink:href="#SegoeUISymbol-435" transform="translate(1800.488281 0)"/>
     <use xlink:href="#SegoeUISymbol-43d" transform="translate(1865.039062 0)"/>
     <use xlink:href="#SegoeUISymbol-435" transform="translate(1929.589844 0)"/>
     <use xlink:href="#SegoeUISymbol-440" transform="translate(1994.140625 0)"/>
     <use xlink:href="#SegoeUISymbol-438" transform="translate(2058.691406 0)"/>
     <use xlink:href="#SegoeUISymbol-440" transform="translate(2123.242188 0)"/>
     <use xlink:href="#SegoeUISymbol-43e" transform="translate(2187.792969 0)"/>
     <use xlink:href="#SegoeUISymbol-432" transform="translate(2252.34375 0)"/>
     <use xlink:href="#SegoeUISymbol-430" transform="translate(2316.894531 0)"/>
     <use xlink:href="#SegoeUISymbol-43d" transform="translate(2381.445312 0)"/>
     <use xlink:href="#SegoeUISymbol-43d" transform="translate(2445.996094 0)"/>
     <use xlink:href="#SegoeUISymbol-43e" transform="translate(2510.546875 0)"/>
     <use xlink:href="#SegoeUISymbol-433" transform="translate(2575.097656 0)"/>
     <use xlink:href="#SegoeUISymbol-43e" transform="translate(2639.648438 0)"/>
     <use xlink:href="#SegoeUISymbol-20" transform="translate(2704.199219 0)"/>
     <use xlink:href="#SegoeUISymbol-442" transform="translate(2731.591797 0)"/>
     <use xlink:href="#SegoeUISymbol-432" transform="translate(2796.142578 0)"/>
     <use xlink:href="#SegoeUISymbol-43e" transform="translate(2860.693359 0)"/>
     <use xlink:href="#SegoeUISymbol-440" transform="translate(2925.244141 0)"/>
     <use xlink:href="#SegoeUISymbol-447" transform="translate(2989.794922 0)"/>
     <use xlink:href="#SegoeUISymbol-435" transform="translate(3054.345703 0)"/>
     <use xlink:href="#SegoeUISymbol-441" transform="translate(3118.896484 0)"/>
     <use xlink:href="#SegoeUISymbol-442" transform="translate(3183.447266 0)"/>
     <use xlink:href="#SegoeUISymbol-432" transform="translate(3247.998047 0)"/>
     <use xlink:href="#SegoeUISymbol-430" transform="translate(3312.548828 0)"/>
    </g>
   </g>
   <g id="line2d_10">
    <path d="M 78.501094 172.528202 
L 205.319276 169.114668 
L 332.137457 308.738147 
L 458.955639 510.757078 
L 585.773821 345.028156 
L 78.501094 172.528202 
" clip-path="url(#p87ab3c35d2)" style="fill: none; stroke-dasharray: 6.66,2.88; stroke-dashoffset: 0; stroke: #1e88e5; stroke-opacity: 0.6; stroke-width: 1.8"/>
    <defs>
     <path id="mf11a17e6e0" d="M 0 -4 
L -4 4 
L 4 4 
z
" style="stroke: #1e88e5; stroke-opacity: 0.6; stroke-linejoin: miter"/>
    </defs>
    <g clip-path="url(#p87ab3c35d2)">
     <use xlink:href="#mf11a17e6e0" x="78.501094" y="172.528202" style="fill: #1e88e5; fill-opacity: 0.6; stroke: #1e88e5; stroke-opacity: 0.6; stroke-linejoin: miter"/>
     <use xlink:href="#mf11a17e6e0" x="205.319276" y="169.114668" style="fill: #1e88e5; fill-opacity: 0.6; stroke: #1e88e5; stroke-opacity: 0.6; stroke-linejoin: miter"/>
     <use xlink:href="#mf11a17e6e0" x="332.137457" y="308.738147" style="fill: #1e88e5; fill-opacity: 0.6; stroke: #1e88e5; stroke-opacity: 0.6; stroke-linejoin: miter"/>
     <use xlink:href="#mf11a17e6e0" x="458.955639" y="510.757078" style="fill: #1e88e5; fill-opacity: 0.6; stroke: #1e88e5; stroke-opacity: 0.6; stroke-linejoin: miter"/>
     <use xlink:href="#mf11a17e6e0" x="585.773821" y="345.028156" style="fill: #1e88e5; fill-opacity: 0.6; stroke: #1e88e5; stroke-opacity: 0.6; stroke-linejoin: miter"/>
     <use xlink:href="#mf11a17e6e0" x="78.501094" y="172.528202" style="fill: #1e88e5; fill-opacity: 0.6; stroke: #1e88e5; stroke-opacity: 0.6; stroke-linejoin: miter"/>
    </g>
   </g>
   <g id="line2d_11">
    <path d="M 78.501094 320.847249 
L 205.319276 292.638178 
L 332.137457 370.944919 
L 458.955639 331.236582 
L 585.773821 370.871468 
L 78.501094 320.847249 
" clip-path="url(#p87ab3c35d2)" style="fill: none; stroke-dasharray: 6.66,2.88; stroke-dashoffset: 0; stroke: #6d4c41; stroke-opacity: 0.6; stroke-width: 1.8"/>
    <defs>
     <path id="m16874aec15" d="M 0 5.656854 
L 5.656854 0 
L 0 -5.656854 
L -5.656854 0 
z
" style="stroke: #6d4c41; stroke-opacity: 0.6; stroke-linejoin: miter"/>
    </defs>
    <g clip-path="url(#p87ab3c35d2)">
     <use xlink:href="#m16874aec15" x="78.501094" y="320.847249" style="fill: #6d4c41; fill-opacity: 0.6; stroke: #6d4c41; stroke-opacity: 0.6; stroke-linejoin: miter"/>
     <use xlink:href="#m16874aec15" x="205.319276" y="292.638178" style="fill: #6d4c41; fill-opacity: 0.6; stroke: #6d4c41; stroke-opacity: 0.6; stroke-linejoin: miter"/>
     <use xlink:href="#m16874aec15" x="332.137457" y="370.944919" style="fill: #6d4c41; fill-opacity: 0.6; stroke: #6d4c41; stroke-opacity: 0.6; stroke-linejoin: miter"/>
     <use xlink:href="#m16874aec15" x="458.955639" y="331.236582" style="fill: #6d4c41; fill-opacity: 0.6; stroke: #6d4c41; stroke-opacity: 0.6; stroke-linejoin: miter"/>
     <use xlink:href="#m16874aec15" x="585.773821" y="370.871468" style="fill: #6d4c41; fill-opacity: 0.6; stroke: #6d4c41; stroke-opacity: 0.6; stroke-linejoin: miter"/>
     <use xlink:href="#m16874aec15" x="78.501094" y="320.847249" style="fill: #6d4c41; fill-opacity: 0.6; stroke: #6d4c41; stroke-opacity: 0.6; stroke-linejoin: miter"/>
    </g>
   </g>
   <g id="line2d_12">
    <path d="M 78.501094 336.838925 
L 205.319276 342.148883 
L 332.137457 383.841088 
L 458.955639 280.821884 
L 585.773821 421.741276 
L 78.501094 336.838925 
" clip-path="url(#p87ab3c35d2)" style="fill: none; stroke-dasharray: 6.66,2.88; stroke-dashoffset: 0; stroke: #004d40; stroke-opacity: 0.6; stroke-width: 1.8"/>
    <defs>
     <path id="mee607dcb93" d="M -0 4 
L 4 -4 
L -4 -4 
z
" style="stroke: #004d40; stroke-opacity: 0.6; stroke-linejoin: miter"/>
    </defs>
    <g clip-path="url(#p87ab3c35d2)">
     <use xlink:href="#mee607dcb93" x="78.501094" y="336.838925" style="fill: #004d40; fill-opacity: 0.6; stroke: #004d40; stroke-opacity: 0.6; stroke-linejoin: miter"/>
     <use xlink:href="#mee607dcb93" x="205.319276" y="342.148883" style="fill: #004d40; fill-opacity: 0.6; stroke: #004d40; stroke-opacity: 0.6; stroke-linejoin: miter"/>
     <use xlink:href="#mee607dcb93" x="332.137457" y="383.841088" style="fill: #004d40; fill-opacity: 0.6; stroke: #004d40; stroke-opacity: 0.6; stroke-linejoin: miter"/>
     <use xlink:href="#mee607dcb93" x="458.955639" y="280.821884" style="fill: #004d40; fill-opacity: 0.6; stroke: #004d40; stroke-opacity: 0.6; stroke-linejoin: miter"/>
     <use xlink:href="#mee607dcb93" x="585.773821" y="421.741276" style="fill: #004d40; fill-opacity: 0.6; stroke: #004d40; stroke-opacity: 0.6; stroke-linejoin: miter"/>
     <use xlink:href="#mee607dcb93" x="78.501094" y="336.838925" style="fill: #004d40; fill-opacity: 0.6; stroke: #004d40; stroke-opacity: 0.6; stroke-linejoin: miter"/>
    </g>
   </g>
   <g id="line2d_13">
    <path d="M 78.501094 213.490702 
L 205.319276 223.536761 
L 332.137457 262.532779 
L 458.955639 498.210315 
L 585.773821 314.428543 
L 78.501094 213.490702 
" clip-path="url(#p87ab3c35d2)" style="fill: none; stroke-dasharray: 6.66,2.88; stroke-dashoffset: 0; stroke: #5e35b1; stroke-opacity: 0.6; stroke-width: 1.8"/>
    <defs>
     <path id="m87d68cac5a" d="M -2 4 
L 0 2 
L 2 4 
L 4 2 
L 2 0 
L 4 -2 
L 2 -4 
L 0 -2 
L -2 -4 
L -4 -2 
L -2 0 
L -4 2 
z
" style="stroke: #5e35b1; stroke-opacity: 0.6; stroke-linejoin: miter"/>
    </defs>
    <g clip-path="url(#p87ab3c35d2)">
     <use xlink:href="#m87d68cac5a" x="78.501094" y="213.490702" style="fill: #5e35b1; fill-opacity: 0.6; stroke: #5e35b1; stroke-opacity: 0.6; stroke-linejoin: miter"/>
     <use xlink:href="#m87d68cac5a" x="205.319276" y="223.536761" style="fill: #5e35b1; fill-opacity: 0.6; stroke: #5e35b1; stroke-opacity: 0.6; stroke-linejoin: miter"/>
     <use xlink:href="#m87d68cac5a" x="332.137457" y="262.532779" style="fill: #5e35b1; fill-opacity: 0.6; stroke: #5e35b1; stroke-opacity: 0.6; stroke-linejoin: miter"/>
     <use xlink:href="#m87d68cac5a" x="458.955639" y="498.210315" style="fill: #5e35b1; fill-opacity: 0.6; stroke: #5e35b1; stroke-opacity: 0.6; stroke-linejoin: miter"/>
     <use xlink:href="#m87d68cac5a" x="585.773821" y="314.428543" style="fill: #5e35b1; fill-opacity: 0.6; stroke: #5e35b1; stroke-opacity: 0.6; stroke-linejoin: miter"/>
     <use xlink:href="#m87d68cac5a" x="78.501094" y="213.490702" style="fill: #5e35b1; fill-opacity: 0.6; stroke: #5e35b1; stroke-opacity: 0.6; stroke-linejoin: miter"/>
    </g>
   </g>
   <g id="line2d_14">
    <path d="M 78.501094 190.031576 
L 205.319276 260.056139 
L 332.137457 163.401071 
L 458.955639 479.8897 
L 585.773821 173.901481 
L 78.501094 190.031576 
" clip-path="url(#p87ab3c35d2)" style="fill: none; stroke: #1e88e5; stroke-opacity: 0.9; stroke-width: 2.16; stroke-linecap: square"/>
    <defs>
     <path id="m460771f4c3" d="M 0 4 
C 1.060812 4 2.078319 3.578535 2.828427 2.828427 
C 3.578535 2.078319 4 1.060812 4 0 
C 4 -1.060812 3.578535 -2.078319 2.828427 -2.828427 
C 2.078319 -3.578535 1.060812 -4 0 -4 
C -1.060812 -4 -2.078319 -3.578535 -2.828427 -2.828427 
C -3.578535 -2.078319 -4 -1.060812 -4 0 
C -4 1.060812 -3.578535 2.078319 -2.828427 2.828427 
C -2.078319 3.578535 -1.060812 4 0 4 
z
" style="stroke: #1e88e5; stroke-opacity: 0.9"/>
    </defs>
    <g clip-path="url(#p87ab3c35d2)">
     <use xlink:href="#m460771f4c3" x="78.501094" y="190.031576" style="fill: #1e88e5; fill-opacity: 0.9; stroke: #1e88e5; stroke-opacity: 0.9"/>
     <use xlink:href="#m460771f4c3" x="205.319276" y="260.056139" style="fill: #1e88e5; fill-opacity: 0.9; stroke: #1e88e5; stroke-opacity: 0.9"/>
     <use xlink:href="#m460771f4c3" x="332.137457" y="163.401071" style="fill: #1e88e5; fill-opacity: 0.9; stroke: #1e88e5; stroke-opacity: 0.9"/>
     <use xlink:href="#m460771f4c3" x="458.955639" y="479.8897" style="fill: #1e88e5; fill-opacity: 0.9; stroke: #1e88e5; stroke-opacity: 0.9"/>
     <use xlink:href="#m460771f4c3" x="585.773821" y="173.901481" style="fill: #1e88e5; fill-opacity: 0.9; stroke: #1e88e5; stroke-opacity: 0.9"/>
     <use xlink:href="#m460771f4c3" x="78.501094" y="190.031576" style="fill: #1e88e5; fill-opacity: 0.9; stroke: #1e88e5; stroke-opacity: 0.9"/>
    </g>
   </g>
   <g id="line2d_15">
    <path d="M 78.501094 362.11893 
L 205.319276 450.15637 
L 332.137457 317.021284 
L 458.955639 256.670026 
L 585.773821 414.893952 
L 78.501094 362.11893 
" clip-path="url(#p87ab3c35d2)" style="fill: none; stroke: #6d4c41; stroke-opacity: 0.9; stroke-width: 2.16; stroke-linecap: square"/>
    <defs>
     <path id="m277f4865f4" d="M -4 4 
L 4 4 
L 4 -4 
L -4 -4 
z
" style="stroke: #6d4c41; stroke-opacity: 0.9; stroke-linejoin: miter"/>
    </defs>
    <g clip-path="url(#p87ab3c35d2)">
     <use xlink:href="#m277f4865f4" x="78.501094" y="362.11893" style="fill: #6d4c41; fill-opacity: 0.9; stroke: #6d4c41; stroke-opacity: 0.9; stroke-linejoin: miter"/>
     <use xlink:href="#m277f4865f4" x="205.319276" y="450.15637" style="fill: #6d4c41; fill-opacity: 0.9; stroke: #6d4c41; stroke-opacity: 0.9; stroke-linejoin: miter"/>
     <use xlink:href="#m277f4865f4" x="332.137457" y="317.021284" style="fill: #6d4c41; fill-opacity: 0.9; stroke: #6d4c41; stroke-opacity: 0.9; stroke-linejoin: miter"/>
     <use xlink:href="#m277f4865f4" x="458.955639" y="256.670026" style="fill: #6d4c41; fill-opacity: 0.9; stroke: #6d4c41; stroke-opacity: 0.9; stroke-linejoin: miter"/>
     <use xlink:href="#m277f4865f4" x="585.773821" y="414.893952" style="fill: #6d4c41; fill-opacity: 0.9; stroke: #6d4c41; stroke-opacity: 0.9; stroke-linejoin: miter"/>
     <use xlink:href="#m277f4865f4" x="78.501094" y="362.11893" style="fill: #6d4c41; fill-opacity: 0.9; stroke: #6d4c41; stroke-opacity: 0.9; stroke-linejoin: miter"/>
    </g>
   </g>
   <g id="line2d_16">
    <path d="M 78.501094 486.970878 
L 205.319276 494.44366 
L 332.137457 469.263366 
L 458.955639 129.751252 
L 585.773821 371.782207 
L 78.501094 486.970878 
" clip-path="url(#p87ab3c35d2)" style="fill: none; stroke: #004d40; stroke-opacity: 0.9; stroke-width: 2.16; stroke-linecap: square"/>
    <defs>
     <path id="m52c4b9195b" d="M 0 5.656854 
L 3.394113 0 
L 0 -5.656854 
L -3.394113 0 
z
" style="stroke: #004d40; stroke-opacity: 0.9; stroke-linejoin: miter"/>
    </defs>
    <g clip-path="url(#p87ab3c35d2)">
     <use xlink:href="#m52c4b9195b" x="78.501094" y="486.970878" style="fill: #004d40; fill-opacity: 0.9; stroke: #004d40; stroke-opacity: 0.9; stroke-linejoin: miter"/>
     <use xlink:href="#m52c4b9195b" x="205.319276" y="494.44366" style="fill: #004d40; fill-opacity: 0.9; stroke: #004d40; stroke-opacity: 0.9; stroke-linejoin: miter"/>
     <use xlink:href="#m52c4b9195b" x="332.137457" y="469.263366" style="fill: #004d40; fill-opacity: 0.9; stroke: #004d40; stroke-opacity: 0.9; stroke-linejoin: miter"/>
     <use xlink:href="#m52c4b9195b" x="458.955639" y="129.751252" style="fill: #004d40; fill-opacity: 0.9; stroke: #004d40; stroke-opacity: 0.9; stroke-linejoin: miter"/>
     <use xlink:href="#m52c4b9195b" x="585.773821" y="371.782207" style="fill: #004d40; fill-opacity: 0.9; stroke: #004d40; stroke-opacity: 0.9; stroke-linejoin: miter"/>
     <use xlink:href="#m52c4b9195b" x="78.501094" y="486.970878" style="fill: #004d40; fill-opacity: 0.9; stroke: #004d40; stroke-opacity: 0.9; stroke-linejoin: miter"/>
    </g>
   </g>
   <g id="line2d_17">
    <path d="M 78.501094 252.261424 
L 205.319276 217.846389 
L 332.137457 184.632808 
L 458.955639 460.515835 
L 585.773821 250.825093 
L 78.501094 252.261424 
" clip-path="url(#p87ab3c35d2)" style="fill: none; stroke: #5e35b1; stroke-opacity: 0.9; stroke-width: 2.16; stroke-linecap: square"/>
    <defs>
     <path id="m92c0a0259b" d="M -1.333333 4 
L 1.333333 4 
L 1.333333 1.333333 
L 4 1.333333 
L 4 -1.333333 
L 1.333333 -1.333333 
L 1.333333 -4 
L -1.333333 -4 
L -1.333333 -1.333333 
L -4 -1.333333 
L -4 1.333333 
L -1.333333 1.333333 
z
" style="stroke: #5e35b1; stroke-opacity: 0.9; stroke-linejoin: miter"/>
    </defs>
    <g clip-path="url(#p87ab3c35d2)">
     <use xlink:href="#m92c0a0259b" x="78.501094" y="252.261424" style="fill: #5e35b1; fill-opacity: 0.9; stroke: #5e35b1; stroke-opacity: 0.9; stroke-linejoin: miter"/>
     <use xlink:href="#m92c0a0259b" x="205.319276" y="217.846389" style="fill: #5e35b1; fill-opacity: 0.9; stroke: #5e35b1; stroke-opacity: 0.9; stroke-linejoin: miter"/>
     <use xlink:href="#m92c0a0259b" x="332.137457" y="184.632808" style="fill: #5e35b1; fill-opacity: 0.9; stroke: #5e35b1; stroke-opacity: 0.9; stroke-linejoin: miter"/>
     <use xlink:href="#m92c0a0259b" x="458.955639" y="460.515835" style="fill: #5e35b1; fill-opacity: 0.9; stroke: #5e35b1; stroke-opacity: 0.9; stroke-linejoin: miter"/>
     <use xlink:href="#m92c0a0259b" x="585.773821" y="250.825093" style="fill: #5e35b1; fill-opacity: 0.9; stroke: #5e35b1; stroke-opacity: 0.9; stroke-linejoin: miter"/>
     <use xlink:href="#m92c0a0259b" x="78.501094" y="252.261424" style="fill: #5e35b1; fill-opacity: 0.9; stroke: #5e35b1; stroke-opacity: 0.9; stroke-linejoin: miter"/>
    </g>
   </g>
   <g id="legend_1">
    <g id="patch_17">
     <path d="M 658.310895 210.446625 
L 771.537457 210.446625 
Q 773.537457 210.446625 773.537457 208.446625 
L 773.537457 91.821625 
Q 773.537457 89.821625 771.537457 89.821625 
L 658.310895 89.821625 
Q 656.310895 89.821625 656.310895 91.821625 
L 656.310895 208.446625 
Q 656.310895 210.446625 658.310895 210.446625 
z
" style="fill: #ffffff; opacity: 0.9; stroke: #cccccc; stroke-linejoin: miter"/>
    </g>
    <g id="line2d_18">
     <path d="M 660.310895 97.72475 
L 670.310895 97.72475 
L 680.310895 97.72475 
" style="fill: none; stroke: #1e88e5; stroke-width: 1.8; stroke-linecap: square"/>
     <defs>
      <path id="mde43665ad4" d="M 0 4 
C 1.060812 4 2.078319 3.578535 2.828427 2.828427 
C 3.578535 2.078319 4 1.060812 4 0 
C 4 -1.060812 3.578535 -2.078319 2.828427 -2.828427 
C 2.078319 -3.578535 1.060812 -4 0 -4 
C -1.060812 -4 -2.078319 -3.578535 -2.828427 -2.828427 
C -3.578535 -2.078319 -4 -1.060812 -4 0 
C -4 1.060812 -3.578535 2.078319 -2.828427 2.828427 
C -2.078319 3.578535 -1.060812 4 0 4 
z
" style="stroke: #1e88e5"/>
     </defs>
     <g>
      <use xlink:href="#mde43665ad4" x="670.310895" y="97.72475" style="fill: #1e88e5; stroke: #1e88e5"/>
     </g>
    </g>
    <g id="text_13">
     <!-- Russian (human) -->
     <g style="fill: #212121" transform="translate(688.310895 101.22475) scale(0.1 -0.1)">
      <defs>
       <path id="SegoeUISymbol-75" d="M 3106 0 
L 2594 0 
L 2594 506 
L 2581 506 
Q 2263 -75 1594 -75 
Q 450 -75 450 1288 
L 450 3200 
L 959 3200 
L 959 1369 
Q 959 356 1734 356 
Q 2109 356 2351 632 
Q 2594 909 2594 1356 
L 2594 3200 
L 3106 3200 
L 3106 0 
z
" transform="scale(0.015625)"/>
       <path id="SegoeUISymbol-73" d="M 325 116 
L 325 666 
Q 744 356 1247 356 
Q 1922 356 1922 806 
Q 1922 934 1864 1023 
Q 1806 1113 1707 1181 
Q 1609 1250 1476 1304 
Q 1344 1359 1191 1419 
Q 978 1503 817 1589 
Q 656 1675 548 1783 
Q 441 1891 386 2028 
Q 331 2166 331 2350 
Q 331 2575 434 2748 
Q 538 2922 709 3039 
Q 881 3156 1101 3215 
Q 1322 3275 1556 3275 
Q 1972 3275 2300 3131 
L 2300 2613 
Q 1947 2844 1488 2844 
Q 1344 2844 1228 2811 
Q 1113 2778 1030 2718 
Q 947 2659 901 2576 
Q 856 2494 856 2394 
Q 856 2269 901 2184 
Q 947 2100 1034 2034 
Q 1122 1969 1247 1916 
Q 1372 1863 1531 1800 
Q 1744 1719 1912 1633 
Q 2081 1547 2200 1439 
Q 2319 1331 2383 1190 
Q 2447 1050 2447 856 
Q 2447 619 2342 444 
Q 2238 269 2063 153 
Q 1888 38 1659 -18 
Q 1431 -75 1181 -75 
Q 688 -75 325 116 
z
" transform="scale(0.015625)"/>
       <path id="SegoeUISymbol-69" d="M 781 4013 
Q 644 4013 547 4106 
Q 450 4200 450 4344 
Q 450 4488 547 4583 
Q 644 4678 781 4678 
Q 922 4678 1020 4583 
Q 1119 4488 1119 4344 
Q 1119 4206 1020 4109 
Q 922 4013 781 4013 
z
M 1031 0 
L 519 0 
L 519 3200 
L 1031 3200 
L 1031 0 
z
" transform="scale(0.015625)"/>
       <path id="SegoeUISymbol-61" d="M 2809 0 
L 2297 0 
L 2297 500 
L 2284 500 
Q 1950 -75 1300 -75 
Q 822 -75 551 178 
Q 281 431 281 850 
Q 281 1747 1338 1894 
L 2297 2028 
Q 2297 2844 1638 2844 
Q 1059 2844 594 2450 
L 594 2975 
Q 1066 3275 1681 3275 
Q 2809 3275 2809 2081 
L 2809 0 
z
M 2297 1619 
L 1525 1513 
Q 1169 1463 987 1336 
Q 806 1209 806 888 
Q 806 653 973 504 
Q 1141 356 1419 356 
Q 1800 356 2048 623 
Q 2297 891 2297 1300 
L 2297 1619 
z
" transform="scale(0.015625)"/>
       <path id="SegoeUISymbol-6e" d="M 3175 0 
L 2663 0 
L 2663 1825 
Q 2663 2844 1919 2844 
Q 1534 2844 1282 2555 
Q 1031 2266 1031 1825 
L 1031 0 
L 519 0 
L 519 3200 
L 1031 3200 
L 1031 2669 
L 1044 2669 
Q 1406 3275 2094 3275 
Q 2619 3275 2897 2936 
Q 3175 2597 3175 1956 
L 3175 0 
z
" transform="scale(0.015625)"/>
       <path id="SegoeUISymbol-68" d="M 3175 0 
L 2663 0 
L 2663 1844 
Q 2663 2844 1919 2844 
Q 1544 2844 1287 2555 
Q 1031 2266 1031 1813 
L 1031 0 
L 519 0 
L 519 4738 
L 1031 4738 
L 1031 2669 
L 1044 2669 
Q 1413 3275 2094 3275 
Q 3175 3275 3175 1972 
L 3175 0 
z
" transform="scale(0.015625)"/>
       <path id="SegoeUISymbol-6d" d="M 5063 0 
L 4550 0 
L 4550 1838 
Q 4550 2369 4386 2606 
Q 4222 2844 3834 2844 
Q 3506 2844 3276 2544 
Q 3047 2244 3047 1825 
L 3047 0 
L 2534 0 
L 2534 1900 
Q 2534 2844 1806 2844 
Q 1469 2844 1250 2561 
Q 1031 2278 1031 1825 
L 1031 0 
L 519 0 
L 519 3200 
L 1031 3200 
L 1031 2694 
L 1044 2694 
Q 1384 3275 2038 3275 
Q 2366 3275 2609 3092 
Q 2853 2909 2944 2613 
Q 3300 3275 4006 3275 
Q 5063 3275 5063 1972 
L 5063 0 
z
" transform="scale(0.015625)"/>
      </defs>
      <use xlink:href="#SegoeUISymbol-52"/>
      <use xlink:href="#SegoeUISymbol-75" transform="translate(59.814453 0)"/>
      <use xlink:href="#SegoeUISymbol-73" transform="translate(116.40625 0)"/>
      <use xlink:href="#SegoeUISymbol-73" transform="translate(158.837891 0)"/>
      <use xlink:href="#SegoeUISymbol-69" transform="translate(201.269531 0)"/>
      <use xlink:href="#SegoeUISymbol-61" transform="translate(225.488281 0)"/>
      <use xlink:href="#SegoeUISymbol-6e" transform="translate(276.367188 0)"/>
      <use xlink:href="#SegoeUISymbol-20" transform="translate(332.958984 0)"/>
      <use xlink:href="#SegoeUISymbol-28" transform="translate(360.351562 0)"/>
      <use xlink:href="#SegoeUISymbol-68" transform="translate(390.527344 0)"/>
      <use xlink:href="#SegoeUISymbol-75" transform="translate(447.119141 0)"/>
      <use xlink:href="#SegoeUISymbol-6d" transform="translate(503.710938 0)"/>
      <use xlink:href="#SegoeUISymbol-61" transform="translate(589.84375 0)"/>
      <use xlink:href="#SegoeUISymbol-6e" transform="translate(640.722656 0)"/>
      <use xlink:href="#SegoeUISymbol-29" transform="translate(697.314453 0)"/>
     </g>
    </g>
    <g id="line2d_19">
     <path d="M 660.310895 112.427875 
L 670.310895 112.427875 
L 680.310895 112.427875 
" style="fill: none; stroke-dasharray: 6.66,2.88; stroke-dashoffset: 0; stroke: #1e88e5; stroke-width: 1.8"/>
     <defs>
      <path id="m3b0449316d" d="M 0 -4 
L -4 4 
L 4 4 
z
" style="stroke: #1e88e5; stroke-linejoin: miter"/>
     </defs>
     <g>
      <use xlink:href="#m3b0449316d" x="670.310895" y="112.427875" style="fill: #1e88e5; stroke: #1e88e5; stroke-linejoin: miter"/>
     </g>
    </g>
    <g id="text_14">
     <!-- Russian (ai) -->
     <g style="fill: #212121" transform="translate(688.310895 115.927875) scale(0.1 -0.1)">
      <use xlink:href="#SegoeUISymbol-52"/>
      <use xlink:href="#SegoeUISymbol-75" transform="translate(59.814453 0)"/>
      <use xlink:href="#SegoeUISymbol-73" transform="translate(116.40625 0)"/>
      <use xlink:href="#SegoeUISymbol-73" transform="translate(158.837891 0)"/>
      <use xlink:href="#SegoeUISymbol-69" transform="translate(201.269531 0)"/>
      <use xlink:href="#SegoeUISymbol-61" transform="translate(225.488281 0)"/>
      <use xlink:href="#SegoeUISymbol-6e" transform="translate(276.367188 0)"/>
      <use xlink:href="#SegoeUISymbol-20" transform="translate(332.958984 0)"/>
      <use xlink:href="#SegoeUISymbol-28" transform="translate(360.351562 0)"/>
      <use xlink:href="#SegoeUISymbol-61" transform="translate(390.527344 0)"/>
      <use xlink:href="#SegoeUISymbol-69" transform="translate(441.40625 0)"/>
      <use xlink:href="#SegoeUISymbol-29" transform="translate(465.625 0)"/>
     </g>
    </g>
    <g id="line2d_20">
     <path d="M 660.310895 127.131 
L 670.310895 127.131 
L 680.310895 127.131 
" style="fill: none; stroke: #6d4c41; stroke-width: 1.8; stroke-linecap: square"/>
     <defs>
      <path id="m2344714267" d="M -4 4 
L 4 4 
L 4 -4 
L -4 -4 
z
" style="stroke: #6d4c41; stroke-linejoin: miter"/>
     </defs>
     <g>
      <use xlink:href="#m2344714267" x="670.310895" y="127.131" style="fill: #6d4c41; stroke: #6d4c41; stroke-linejoin: miter"/>
     </g>
    </g>
    <g id="text_15">
     <!-- Chinese (human) -->
     <g style="fill: #212121" transform="translate(688.310895 130.631) scale(0.1 -0.1)">
      <defs>
       <path id="SegoeUISymbol-43" d="M 3638 188 
Q 3141 -75 2400 -75 
Q 1444 -75 869 540 
Q 294 1156 294 2156 
Q 294 3231 941 3893 
Q 1588 4556 2581 4556 
Q 3219 4556 3638 4372 
L 3638 3813 
Q 3156 4081 2575 4081 
Q 1803 4081 1323 3565 
Q 844 3050 844 2188 
Q 844 1369 1292 883 
Q 1741 397 2469 397 
Q 3144 397 3638 697 
L 3638 188 
z
" transform="scale(0.015625)"/>
       <path id="SegoeUISymbol-65" d="M 3091 1472 
L 831 1472 
Q 844 938 1119 647 
Q 1394 356 1875 356 
Q 2416 356 2869 713 
L 2869 231 
Q 2447 -75 1753 -75 
Q 1075 -75 687 361 
Q 300 797 300 1588 
Q 300 2334 723 2804 
Q 1147 3275 1775 3275 
Q 2403 3275 2747 2869 
Q 3091 2463 3091 1741 
L 3091 1472 
z
M 2566 1906 
Q 2563 2350 2352 2597 
Q 2141 2844 1766 2844 
Q 1403 2844 1150 2584 
Q 897 2325 838 1906 
L 2566 1906 
z
" transform="scale(0.015625)"/>
      </defs>
      <use xlink:href="#SegoeUISymbol-43"/>
      <use xlink:href="#SegoeUISymbol-68" transform="translate(61.914062 0)"/>
      <use xlink:href="#SegoeUISymbol-69" transform="translate(118.505859 0)"/>
      <use xlink:href="#SegoeUISymbol-6e" transform="translate(142.724609 0)"/>
      <use xlink:href="#SegoeUISymbol-65" transform="translate(199.316406 0)"/>
      <use xlink:href="#SegoeUISymbol-73" transform="translate(251.611328 0)"/>
      <use xlink:href="#SegoeUISymbol-65" transform="translate(294.042969 0)"/>
      <use xlink:href="#SegoeUISymbol-20" transform="translate(346.337891 0)"/>
      <use xlink:href="#SegoeUISymbol-28" transform="translate(373.730469 0)"/>
      <use xlink:href="#SegoeUISymbol-68" transform="translate(403.90625 0)"/>
      <use xlink:href="#SegoeUISymbol-75" transform="translate(460.498047 0)"/>
      <use xlink:href="#SegoeUISymbol-6d" transform="translate(517.089844 0)"/>
      <use xlink:href="#SegoeUISymbol-61" transform="translate(603.222656 0)"/>
      <use xlink:href="#SegoeUISymbol-6e" transform="translate(654.101562 0)"/>
      <use xlink:href="#SegoeUISymbol-29" transform="translate(710.693359 0)"/>
     </g>
    </g>
    <g id="line2d_21">
     <path d="M 660.310895 141.834125 
L 670.310895 141.834125 
L 680.310895 141.834125 
" style="fill: none; stroke-dasharray: 6.66,2.88; stroke-dashoffset: 0; stroke: #6d4c41; stroke-width: 1.8"/>
     <defs>
      <path id="ma3ca352cb7" d="M 0 5.656854 
L 5.656854 0 
L 0 -5.656854 
L -5.656854 0 
z
" style="stroke: #6d4c41; stroke-linejoin: miter"/>
     </defs>
     <g>
      <use xlink:href="#ma3ca352cb7" x="670.310895" y="141.834125" style="fill: #6d4c41; stroke: #6d4c41; stroke-linejoin: miter"/>
     </g>
    </g>
    <g id="text_16">
     <!-- Chinese (ai) -->
     <g style="fill: #212121" transform="translate(688.310895 145.334125) scale(0.1 -0.1)">
      <use xlink:href="#SegoeUISymbol-43"/>
      <use xlink:href="#SegoeUISymbol-68" transform="translate(61.914062 0)"/>
      <use xlink:href="#SegoeUISymbol-69" transform="translate(118.505859 0)"/>
      <use xlink:href="#SegoeUISymbol-6e" transform="translate(142.724609 0)"/>
      <use xlink:href="#SegoeUISymbol-65" transform="translate(199.316406 0)"/>
      <use xlink:href="#SegoeUISymbol-73" transform="translate(251.611328 0)"/>
      <use xlink:href="#SegoeUISymbol-65" transform="translate(294.042969 0)"/>
      <use xlink:href="#SegoeUISymbol-20" transform="translate(346.337891 0)"/>
      <use xlink:href="#SegoeUISymbol-28" transform="translate(373.730469 0)"/>
      <use xlink:href="#SegoeUISymbol-61" transform="translate(403.90625 0)"/>
      <use xlink:href="#SegoeUISymbol-69" transform="translate(454.785156 0)"/>
      <use xlink:href="#SegoeUISymbol-29" transform="translate(479.003906 0)"/>
     </g>
    </g>
    <g id="line2d_22">
     <path d="M 660.310895 156.53725 
L 670.310895 156.53725 
L 680.310895 156.53725 
" style="fill: none; stroke: #004d40; stroke-width: 1.8; stroke-linecap: square"/>
     <defs>
      <path id="m6f16672681" d="M 0 5.656854 
L 3.394113 0 
L 0 -5.656854 
L -3.394113 0 
z
" style="stroke: #004d40; stroke-linejoin: miter"/>
     </defs>
     <g>
      <use xlink:href="#m6f16672681" x="670.310895" y="156.53725" style="fill: #004d40; stroke: #004d40; stroke-linejoin: miter"/>
     </g>
    </g>
    <g id="text_17">
     <!-- Japanese (human) -->
     <g style="fill: #212121" transform="translate(688.310895 160.03725) scale(0.1 -0.1)">
      <defs>
       <path id="SegoeUISymbol-70" d="M 1044 463 
L 1031 463 
L 1031 -1472 
L 519 -1472 
L 519 3200 
L 1031 3200 
L 1031 2638 
L 1044 2638 
Q 1422 3275 2150 3275 
Q 2769 3275 3116 2845 
Q 3463 2416 3463 1694 
Q 3463 891 3072 408 
Q 2681 -75 2003 -75 
Q 1381 -75 1044 463 
z
M 1031 1753 
L 1031 1306 
Q 1031 909 1289 632 
Q 1547 356 1944 356 
Q 2409 356 2673 712 
Q 2938 1069 2938 1703 
Q 2938 2238 2691 2541 
Q 2444 2844 2022 2844 
Q 1575 2844 1303 2533 
Q 1031 2222 1031 1753 
z
" transform="scale(0.015625)"/>
      </defs>
      <use xlink:href="#SegoeUISymbol-4a"/>
      <use xlink:href="#SegoeUISymbol-61" transform="translate(34.318359 0)"/>
      <use xlink:href="#SegoeUISymbol-70" transform="translate(85.197266 0)"/>
      <use xlink:href="#SegoeUISymbol-61" transform="translate(142.611328 0)"/>
      <use xlink:href="#SegoeUISymbol-6e" transform="translate(193.490234 0)"/>
      <use xlink:href="#SegoeUISymbol-65" transform="translate(250.082031 0)"/>
      <use xlink:href="#SegoeUISymbol-73" transform="translate(302.376953 0)"/>
      <use xlink:href="#SegoeUISymbol-65" transform="translate(344.808594 0)"/>
      <use xlink:href="#SegoeUISymbol-20" transform="translate(397.103516 0)"/>
      <use xlink:href="#SegoeUISymbol-28" transform="translate(424.496094 0)"/>
      <use xlink:href="#SegoeUISymbol-68" transform="translate(454.671875 0)"/>
      <use xlink:href="#SegoeUISymbol-75" transform="translate(511.263672 0)"/>
      <use xlink:href="#SegoeUISymbol-6d" transform="translate(567.855469 0)"/>
      <use xlink:href="#SegoeUISymbol-61" transform="translate(653.988281 0)"/>
      <use xlink:href="#SegoeUISymbol-6e" transform="translate(704.867188 0)"/>
      <use xlink:href="#SegoeUISymbol-29" transform="translate(761.458984 0)"/>
     </g>
    </g>
    <g id="line2d_23">
     <path d="M 660.310895 171.240375 
L 670.310895 171.240375 
L 680.310895 171.240375 
" style="fill: none; stroke-dasharray: 6.66,2.88; stroke-dashoffset: 0; stroke: #004d40; stroke-width: 1.8"/>
     <defs>
      <path id="m5aea98a20c" d="M -0 4 
L 4 -4 
L -4 -4 
z
" style="stroke: #004d40; stroke-linejoin: miter"/>
     </defs>
     <g>
      <use xlink:href="#m5aea98a20c" x="670.310895" y="171.240375" style="fill: #004d40; stroke: #004d40; stroke-linejoin: miter"/>
     </g>
    </g>
    <g id="text_18">
     <!-- Japanese (ai) -->
     <g style="fill: #212121" transform="translate(688.310895 174.740375) scale(0.1 -0.1)">
      <use xlink:href="#SegoeUISymbol-4a"/>
      <use xlink:href="#SegoeUISymbol-61" transform="translate(34.318359 0)"/>
      <use xlink:href="#SegoeUISymbol-70" transform="translate(85.197266 0)"/>
      <use xlink:href="#SegoeUISymbol-61" transform="translate(142.611328 0)"/>
      <use xlink:href="#SegoeUISymbol-6e" transform="translate(193.490234 0)"/>
      <use xlink:href="#SegoeUISymbol-65" transform="translate(250.082031 0)"/>
      <use xlink:href="#SegoeUISymbol-73" transform="translate(302.376953 0)"/>
      <use xlink:href="#SegoeUISymbol-65" transform="translate(344.808594 0)"/>
      <use xlink:href="#SegoeUISymbol-20" transform="translate(397.103516 0)"/>
      <use xlink:href="#SegoeUISymbol-28" transform="translate(424.496094 0)"/>
      <use xlink:href="#SegoeUISymbol-61" transform="translate(454.671875 0)"/>
      <use xlink:href="#SegoeUISymbol-69" transform="translate(505.550781 0)"/>
      <use xlink:href="#SegoeUISymbol-29" transform="translate(529.769531 0)"/>
     </g>
    </g>
    <g id="line2d_24">
     <path d="M 660.310895 185.9435 
L 670.310895 185.9435 
L 680.310895 185.9435 
" style="fill: none; stroke: #5e35b1; stroke-width: 1.8; stroke-linecap: square"/>
     <defs>
      <path id="m5b2f2981fa" d="M -1.333333 4 
L 1.333333 4 
L 1.333333 1.333333 
L 4 1.333333 
L 4 -1.333333 
L 1.333333 -1.333333 
L 1.333333 -4 
L -1.333333 -4 
L -1.333333 -1.333333 
L -4 -1.333333 
L -4 1.333333 
L -1.333333 1.333333 
z
" style="stroke: #5e35b1; stroke-linejoin: miter"/>
     </defs>
     <g>
      <use xlink:href="#m5b2f2981fa" x="670.310895" y="185.9435" style="fill: #5e35b1; stroke: #5e35b1; stroke-linejoin: miter"/>
     </g>
    </g>
    <g id="text_19">
     <!-- European (human) -->
     <g style="fill: #212121" transform="translate(688.310895 189.4435) scale(0.1 -0.1)">
      <defs>
       <path id="SegoeUISymbol-45" d="M 2963 0 
L 588 0 
L 588 4481 
L 2863 4481 
L 2863 4006 
L 1113 4006 
L 1113 2516 
L 2731 2516 
L 2731 2044 
L 1113 2044 
L 1113 475 
L 2963 475 
L 2963 0 
z
" transform="scale(0.015625)"/>
       <path id="SegoeUISymbol-72" d="M 2188 2681 
Q 2053 2784 1800 2784 
Q 1472 2784 1251 2475 
Q 1031 2166 1031 1631 
L 1031 0 
L 519 0 
L 519 3200 
L 1031 3200 
L 1031 2541 
L 1044 2541 
Q 1153 2878 1378 3067 
Q 1603 3256 1881 3256 
Q 2081 3256 2188 3213 
L 2188 2681 
z
" transform="scale(0.015625)"/>
       <path id="SegoeUISymbol-6f" d="M 1856 -75 
Q 1147 -75 723 373 
Q 300 822 300 1563 
Q 300 2369 740 2822 
Q 1181 3275 1931 3275 
Q 2647 3275 3048 2834 
Q 3450 2394 3450 1613 
Q 3450 847 3017 386 
Q 2584 -75 1856 -75 
z
M 1894 2844 
Q 1400 2844 1112 2508 
Q 825 2172 825 1581 
Q 825 1013 1115 684 
Q 1406 356 1894 356 
Q 2391 356 2658 678 
Q 2925 1000 2925 1594 
Q 2925 2194 2658 2519 
Q 2391 2844 1894 2844 
z
" transform="scale(0.015625)"/>
      </defs>
      <use xlink:href="#SegoeUISymbol-45"/>
      <use xlink:href="#SegoeUISymbol-75" transform="translate(50.585938 0)"/>
      <use xlink:href="#SegoeUISymbol-72" transform="translate(107.177734 0)"/>
      <use xlink:href="#SegoeUISymbol-6f" transform="translate(140.568359 0)"/>
      <use xlink:href="#SegoeUISymbol-70" transform="translate(199.162109 0)"/>
      <use xlink:href="#SegoeUISymbol-65" transform="translate(257.951172 0)"/>
      <use xlink:href="#SegoeUISymbol-61" transform="translate(310.246094 0)"/>
      <use xlink:href="#SegoeUISymbol-6e" transform="translate(361.125 0)"/>
      <use xlink:href="#SegoeUISymbol-20" transform="translate(417.716797 0)"/>
      <use xlink:href="#SegoeUISymbol-28" transform="translate(445.109375 0)"/>
      <use xlink:href="#SegoeUISymbol-68" transform="translate(475.285156 0)"/>
      <use xlink:href="#SegoeUISymbol-75" transform="translate(531.876953 0)"/>
      <use xlink:href="#SegoeUISymbol-6d" transform="translate(588.46875 0)"/>
      <use xlink:href="#SegoeUISymbol-61" transform="translate(674.601562 0)"/>
      <use xlink:href="#SegoeUISymbol-6e" transform="translate(725.480469 0)"/>
      <use xlink:href="#SegoeUISymbol-29" transform="translate(782.072266 0)"/>
     </g>
    </g>
    <g id="line2d_25">
     <path d="M 660.310895 200.646625 
L 670.310895 200.646625 
L 680.310895 200.646625 
" style="fill: none; stroke-dasharray: 6.66,2.88; stroke-dashoffset: 0; stroke: #5e35b1; stroke-width: 1.8"/>
     <defs>
      <path id="m40a4f55ade" d="M -2 4 
L 0 2 
L 2 4 
L 4 2 
L 2 0 
L 4 -2 
L 2 -4 
L 0 -2 
L -2 -4 
L -4 -2 
L -2 0 
L -4 2 
z
" style="stroke: #5e35b1; stroke-linejoin: miter"/>
     </defs>
     <g>
      <use xlink:href="#m40a4f55ade" x="670.310895" y="200.646625" style="fill: #5e35b1; stroke: #5e35b1; stroke-linejoin: miter"/>
     </g>
    </g>
    <g id="text_20">
     <!-- European (ai) -->
     <g style="fill: #212121" transform="translate(688.310895 204.146625) scale(0.1 -0.1)">
      <use xlink:href="#SegoeUISymbol-45"/>
      <use xlink:href="#SegoeUISymbol-75" transform="translate(50.585938 0)"/>
      <use xlink:href="#SegoeUISymbol-72" transform="translate(107.177734 0)"/>
      <use xlink:href="#SegoeUISymbol-6f" transform="translate(140.568359 0)"/>
      <use xlink:href="#SegoeUISymbol-70" transform="translate(199.162109 0)"/>
      <use xlink:href="#SegoeUISymbol-65" transform="translate(257.951172 0)"/>
      <use xlink:href="#SegoeUISymbol-61" transform="translate(310.246094 0)"/>
      <use xlink:href="#SegoeUISymbol-6e" transform="translate(361.125 0)"/>
      <use xlink:href="#SegoeUISymbol-20" transform="translate(417.716797 0)"/>
      <use xlink:href="#SegoeUISymbol-28" transform="translate(445.109375 0)"/>
      <use xlink:href="#SegoeUISymbol-61" transform="translate(475.285156 0)"/>
      <use xlink:href="#SegoeUISymbol-69" transform="translate(526.164062 0)"/>
      <use xlink:href="#SegoeUISymbol-29" transform="translate(550.382812 0)"/>
     </g>
    </g>
   </g>
  </g>
  <g id="text_21">
   <!-- Дуплей М.И. | ORCID: 0009-0007-7605-539X -->
   <g style="fill: #808080; opacity: 0.6" transform="translate(496.393082 646.463813) scale(0.09 -0.09)">
    <defs>
     <path id="SegoeUISymbol-414" d="M 519 0 
L 519 4369 
L 3613 4369 
L 3613 0 
L 519 0 
z
M 981 463 
L 3150 463 
L 3150 3906 
L 981 3906 
L 981 463 
z
" transform="scale(0.015625)"/>
     <path id="SegoeUISymbol-7c" d="M 1000 -1506 
L 538 -1506 
L 538 4894 
L 1000 4894 
L 1000 -1506 
z
" transform="scale(0.015625)"/>
     <path id="SegoeUISymbol-4f" d="M 2394 -75 
Q 1441 -75 867 553 
Q 294 1181 294 2188 
Q 294 3269 878 3912 
Q 1463 4556 2469 4556 
Q 3397 4556 3964 3931 
Q 4531 3306 4531 2297 
Q 4531 1200 3950 562 
Q 3369 -75 2394 -75 
z
M 2431 4081 
Q 1725 4081 1284 3572 
Q 844 3063 844 2234 
Q 844 1406 1273 901 
Q 1703 397 2394 397 
Q 3131 397 3556 878 
Q 3981 1359 3981 2225 
Q 3981 3113 3568 3597 
Q 3156 4081 2431 4081 
z
" transform="scale(0.015625)"/>
     <path id="SegoeUISymbol-49" d="M 1113 0 
L 588 0 
L 588 4481 
L 1113 4481 
L 1113 0 
z
" transform="scale(0.015625)"/>
     <path id="SegoeUISymbol-44" d="M 588 0 
L 588 4481 
L 1825 4481 
Q 4194 4481 4194 2297 
Q 4194 1259 3536 629 
Q 2878 0 1775 0 
L 588 0 
z
M 1113 4006 
L 1113 475 
L 1781 475 
Q 2663 475 3153 947 
Q 3644 1419 3644 2284 
Q 3644 4006 1813 4006 
L 1113 4006 
z
" transform="scale(0.015625)"/>
     <path id="SegoeUISymbol-39" d="M 3138 2509 
Q 3138 1894 3016 1414 
Q 2894 934 2659 601 
Q 2425 269 2087 95 
Q 1750 -78 1319 -78 
Q 875 -78 538 78 
L 538 569 
Q 909 359 1331 359 
Q 1634 359 1873 484 
Q 2113 609 2278 848 
Q 2444 1088 2531 1438 
Q 2619 1788 2619 2241 
L 2606 2241 
Q 2319 1663 1606 1663 
Q 1319 1663 1078 1764 
Q 838 1866 663 2052 
Q 488 2238 391 2494 
Q 294 2750 294 3059 
Q 294 3391 401 3666 
Q 509 3941 701 4139 
Q 894 4338 1158 4447 
Q 1422 4556 1734 4556 
Q 2072 4556 2333 4420 
Q 2594 4284 2772 4023 
Q 2950 3763 3044 3381 
Q 3138 3000 3138 2509 
z
M 2584 2969 
Q 2584 3228 2517 3440 
Q 2450 3653 2331 3804 
Q 2213 3956 2048 4039 
Q 1884 4122 1691 4122 
Q 1506 4122 1347 4048 
Q 1188 3975 1070 3842 
Q 953 3709 886 3526 
Q 819 3344 819 3128 
Q 819 2891 883 2703 
Q 947 2516 1065 2386 
Q 1184 2256 1351 2187 
Q 1519 2119 1722 2119 
Q 1900 2119 2058 2186 
Q 2216 2253 2333 2367 
Q 2450 2481 2517 2636 
Q 2584 2791 2584 2969 
z
" transform="scale(0.015625)"/>
     <path id="SegoeUISymbol-37" d="M 3156 4184 
Q 3053 4006 2908 3740 
Q 2763 3475 2600 3144 
Q 2438 2813 2269 2431 
Q 2100 2050 1953 1644 
Q 1806 1238 1695 820 
Q 1584 403 1534 0 
L 984 0 
Q 1041 400 1158 817 
Q 1275 1234 1423 1636 
Q 1572 2038 1737 2409 
Q 1903 2781 2059 3093 
Q 2216 3406 2345 3645 
Q 2475 3884 2553 4019 
L 306 4019 
L 306 4481 
L 3156 4481 
L 3156 4184 
z
" transform="scale(0.015625)"/>
     <path id="SegoeUISymbol-35" d="M 3028 1369 
Q 3028 1041 2915 775 
Q 2803 509 2595 318 
Q 2388 128 2094 25 
Q 1800 -78 1441 -78 
Q 816 -78 513 109 
L 513 653 
Q 969 359 1447 359 
Q 1691 359 1886 431 
Q 2081 503 2218 631 
Q 2356 759 2429 940 
Q 2503 1122 2503 1338 
Q 2503 1775 2209 2023 
Q 1916 2272 1356 2272 
Q 1266 2272 1166 2269 
Q 1066 2266 966 2261 
Q 866 2256 770 2250 
Q 675 2244 597 2234 
L 750 4481 
L 2822 4481 
L 2822 4019 
L 1194 4019 
L 1103 2703 
Q 1203 2709 1315 2714 
Q 1428 2719 1516 2719 
Q 1872 2719 2153 2625 
Q 2434 2531 2629 2357 
Q 2825 2184 2926 1932 
Q 3028 1681 3028 1369 
z
" transform="scale(0.015625)"/>
     <path id="SegoeUISymbol-33" d="M 2978 1269 
Q 2978 966 2864 717 
Q 2750 469 2542 292 
Q 2334 116 2043 19 
Q 1753 -78 1403 -78 
Q 763 -78 384 166 
L 384 716 
Q 838 359 1422 359 
Q 1656 359 1845 418 
Q 2034 478 2170 590 
Q 2306 703 2379 862 
Q 2453 1022 2453 1222 
Q 2453 2100 1203 2100 
L 831 2100 
L 831 2534 
L 1184 2534 
Q 2291 2534 2291 3359 
Q 2291 4122 1447 4122 
Q 972 4122 556 3803 
L 556 4300 
Q 984 4556 1575 4556 
Q 1856 4556 2084 4478 
Q 2313 4400 2475 4259 
Q 2638 4119 2727 3922 
Q 2816 3725 2816 3488 
Q 2816 2603 1922 2350 
L 1922 2338 
Q 2150 2313 2344 2227 
Q 2538 2141 2678 2003 
Q 2819 1866 2898 1680 
Q 2978 1494 2978 1269 
z
" transform="scale(0.015625)"/>
     <path id="SegoeUISymbol-58" d="M 3681 0 
L 3041 0 
L 2009 1716 
Q 1963 1794 1906 1938 
L 1894 1938 
Q 1863 1866 1788 1716 
L 725 0 
L 81 0 
L 1581 2253 
L 200 4481 
L 844 4481 
L 1759 2906 
Q 1850 2750 1919 2594 
L 1931 2594 
Q 2031 2800 2106 2919 
L 3059 4481 
L 3663 4481 
L 2253 2259 
L 3681 0 
z
" transform="scale(0.015625)"/>
    </defs>
    <use xlink:href="#SegoeUISymbol-414"/>
    <use xlink:href="#SegoeUISymbol-443" transform="translate(64.550781 0)"/>
    <use xlink:href="#SegoeUISymbol-43f" transform="translate(129.101562 0)"/>
    <use xlink:href="#SegoeUISymbol-43b" transform="translate(193.652344 0)"/>
    <use xlink:href="#SegoeUISymbol-435" transform="translate(258.203125 0)"/>
    <use xlink:href="#SegoeUISymbol-439" transform="translate(322.753906 0)"/>
    <use xlink:href="#SegoeUISymbol-20" transform="translate(387.304688 0)"/>
    <use xlink:href="#SegoeUISymbol-41c" transform="translate(414.697266 0)"/>
    <use xlink:href="#SegoeUISymbol-2e" transform="translate(479.248047 0)"/>
    <use xlink:href="#SegoeUISymbol-418" transform="translate(500.927734 0)"/>
    <use xlink:href="#SegoeUISymbol-2e" transform="translate(565.478516 0)"/>
    <use xlink:href="#SegoeUISymbol-20" transform="translate(587.158203 0)"/>
    <use xlink:href="#SegoeUISymbol-7c" transform="translate(614.550781 0)"/>
    <use xlink:href="#SegoeUISymbol-20" transform="translate(638.476562 0)"/>
    <use xlink:href="#SegoeUISymbol-4f" transform="translate(665.869141 0)"/>
    <use xlink:href="#SegoeUISymbol-52" transform="translate(741.259766 0)"/>
    <use xlink:href="#SegoeUISymbol-43" transform="translate(799.699219 0)"/>
    <use xlink:href="#SegoeUISymbol-49" transform="translate(861.613281 0)"/>
    <use xlink:href="#SegoeUISymbol-44" transform="translate(888.224609 0)"/>
    <use xlink:href="#SegoeUISymbol-3a" transform="translate(958.341797 0)"/>
    <use xlink:href="#SegoeUISymbol-20" transform="translate(980.021484 0)"/>
    <use xlink:href="#SegoeUISymbol-30" transform="translate(1007.414062 0)"/>
    <use xlink:href="#SegoeUISymbol-30" transform="translate(1061.320312 0)"/>
    <use xlink:href="#SegoeUISymbol-30" transform="translate(1115.226562 0)"/>
    <use xlink:href="#SegoeUISymbol-39" transform="translate(1169.132812 0)"/>
    <use xlink:href="#SegoeUISymbol-2d" transform="translate(1223.039062 0)"/>
    <use xlink:href="#SegoeUISymbol-30" transform="translate(1263.029297 0)"/>
    <use xlink:href="#SegoeUISymbol-30" transform="translate(1316.935547 0)"/>
    <use xlink:href="#SegoeUISymbol-30" transform="translate(1370.841797 0)"/>
    <use xlink:href="#SegoeUISymbol-37" transform="translate(1424.748047 0)"/>
    <use xlink:href="#SegoeUISymbol-2d" transform="translate(1478.654297 0)"/>
    <use xlink:href="#SegoeUISymbol-37" transform="translate(1518.644531 0)"/>
    <use xlink:href="#SegoeUISymbol-36" transform="translate(1572.550781 0)"/>
    <use xlink:href="#SegoeUISymbol-30" transform="translate(1626.457031 0)"/>
    <use xlink:href="#SegoeUISymbol-35" transform="translate(1680.363281 0)"/>
    <use xlink:href="#SegoeUISymbol-2d" transform="translate(1734.269531 0)"/>
    <use xlink:href="#SegoeUISymbol-35" transform="translate(1774.259766 0)"/>
    <use xlink:href="#SegoeUISymbol-33" transform="translate(1828.166016 0)"/>
    <use xlink:href="#SegoeUISymbol-39" transform="translate(1882.072266 0)"/>
    <use xlink:href="#SegoeUISymbol-58" transform="translate(1935.978516 0)"/>
   </g>
  </g>
 </g>
 <defs>
  <clipPath id="p87ab3c35d2">
   <rect x="53.137457" y="84.821625" width="558" height="498.96"/>
  </clipPath>
 </defs>
</svg>
