<?xml version="1.0" encoding="utf-8" standalone="no"?>
<!DOCTYPE svg PUBLIC "-//W3C//DTD SVG 1.1//EN"
  "http://www.w3.org/Graphics/SVG/1.1/DTD/svg11.dtd">
<svg xmlns:xlink="http://www.w3.org/1999/xlink" width="841.05375pt" height="604.741625pt" viewBox="0 0 841.05375 604.741625" xmlns="http://www.w3.org/2000/svg" version="1.1">
 <metadata>
  <rdf:RDF xmlns:dc="http://purl.org/dc/elements/1.1/" xmlns:cc="http://creativecommons.org/ns#" xmlns:rdf="http://www.w3.org/1999/02/22-rdf-syntax-ns#">
   <cc:Work>
    <dc:type rdf:resource="http://purl.org/dc/dcmitype/StillImage"/>
    <dc:date>2025-11-08T14:08:54.106016</dc:date>
    <dc:format>image/svg+xml</dc:format>
    <dc:creator>
     <cc:Agent>
      <dc:title>Matplotlib v3.10.7, https://matplotlib.org/</dc:title>
     </cc:Agent>
    </dc:creator>
   </cc:Work>
  </rdf:RDF>
 </metadata>
 <defs>
  <style type="text/css">*{stroke-linejoin: round; stroke-linecap: butt}</style>
 </defs>
 <g id="figure_1">
  <g id="patch_1">
   <path d="M 0 604.741625 
L 841.05375 604.741625 
L 841.05375 0 
L 0 0 
z
" style="fill: #ffffff"/>
  </g>
  <g id="axes_1">
   <g id="patch_2">
    <path d="M 64.89375 518.341625 
L 734.49375 518.341625 
L 734.49375 74.821625 
L 64.89375 74.821625 
z
" style="fill: #ffffff"/>
   </g>
   <g id="patch_3">
    <path d="M 95.330114 518.341625 
L 140.660868 518.341625 
L 140.660868 196.712002 
L 95.330114 196.712002 
z
" clip-path="url(#p823f8dd620)" style="fill: #ffc107; opacity: 0.8; stroke: #000000; stroke-width: 0.5; stroke-linejoin: miter"/>
   </g>
   <g id="patch_4">
    <path d="M 224.846555 518.341625 
L 270.177309 518.341625 
L 270.177309 166.665787 
L 224.846555 166.665787 
z
" clip-path="url(#p823f8dd620)" style="fill: #ffc107; opacity: 0.8; stroke: #000000; stroke-width: 0.5; stroke-linejoin: miter"/>
   </g>
   <g id="patch_5">
    <path d="M 354.362996 518.341625 
L 399.69375 518.341625 
L 399.69375 139.40897 
L 354.362996 139.40897 
z
" clip-path="url(#p823f8dd620)" style="fill: #ffc107; opacity: 0.8; stroke: #000000; stroke-width: 0.5; stroke-linejoin: miter"/>
   </g>
   <g id="patch_6">
    <path d="M 483.879437 518.341625 
L 529.210191 518.341625 
L 529.210191 117.508622 
L 483.879437 117.508622 
z
" clip-path="url(#p823f8dd620)" style="fill: #ffc107; opacity: 0.8; stroke: #000000; stroke-width: 0.5; stroke-linejoin: miter"/>
   </g>
   <g id="patch_7">
    <path d="M 613.395878 518.341625 
L 658.726632 518.341625 
L 658.726632 95.941625 
L 613.395878 95.941625 
z
" clip-path="url(#p823f8dd620)" style="fill: #ffc107; opacity: 0.8; stroke: #000000; stroke-width: 0.5; stroke-linejoin: miter"/>
   </g>
   <g id="patch_8">
    <path d="M 140.660868 518.341625 
L 185.991622 518.341625 
L 185.991622 299.872884 
L 140.660868 299.872884 
z
" clip-path="url(#p823f8dd620)" style="fill: #00acc1; opacity: 0.8; stroke: #000000; stroke-width: 0.5; stroke-linejoin: miter"/>
   </g>
   <g id="patch_9">
    <path d="M 270.177309 518.341625 
L 315.508063 518.341625 
L 315.508063 252.829075 
L 270.177309 252.829075 
z
" clip-path="url(#p823f8dd620)" style="fill: #00acc1; opacity: 0.8; stroke: #000000; stroke-width: 0.5; stroke-linejoin: miter"/>
   </g>
   <g id="patch_10">
    <path d="M 399.69375 518.341625 
L 445.024504 518.341625 
L 445.024504 267.887209 
L 399.69375 267.887209 
z
" clip-path="url(#p823f8dd620)" style="fill: #00acc1; opacity: 0.8; stroke: #000000; stroke-width: 0.5; stroke-linejoin: miter"/>
   </g>
   <g id="patch_11">
    <path d="M 529.210191 518.341625 
L 574.540945 518.341625 
L 574.540945 214.234255 
L 529.210191 214.234255 
z
" clip-path="url(#p823f8dd620)" style="fill: #00acc1; opacity: 0.8; stroke: #000000; stroke-width: 0.5; stroke-linejoin: miter"/>
   </g>
   <g id="patch_12">
    <path d="M 658.726632 518.341625 
L 704.057386 518.341625 
L 704.057386 262.173287 
L 658.726632 262.173287 
z
" clip-path="url(#p823f8dd620)" style="fill: #00acc1; opacity: 0.8; stroke: #000000; stroke-width: 0.5; stroke-linejoin: miter"/>
   </g>
   <g id="matplotlib.axis_1">
    <g id="xtick_1">
     <g id="line2d_1">
      <defs>
       <path id="m304025a7c0" d="M 0 0 
L 0 4 
" style="stroke: #212121; stroke-width: 0.8"/>
      </defs>
      <g>
       <use xlink:href="#m304025a7c0" x="140.660868" y="518.341625" style="fill: #212121; stroke: #212121; stroke-width: 0.8"/>
      </g>
     </g>
     <g id="text_1">
      <!-- Классическая -->
      <g style="fill: #212121" transform="translate(98.05993 533.985063) scale(0.11 -0.11)">
       <defs>
        <path id="SegoeUISymbol-41a" d="M 519 0 
L 519 4369 
L 3613 4369 
L 3613 0 
L 519 0 
z
M 981 463 
L 3150 463 
L 3150 3906 
L 981 3906 
L 981 463 
z
" transform="scale(0.015625)"/>
        <path id="SegoeUISymbol-43b" d="M 519 0 
L 519 4369 
L 3613 4369 
L 3613 0 
L 519 0 
z
M 981 463 
L 3150 463 
L 3150 3906 
L 981 3906 
L 981 463 
z
" transform="scale(0.015625)"/>
        <path id="SegoeUISymbol-430" d="M 519 0 
L 519 4369 
L 3613 4369 
L 3613 0 
L 519 0 
z
M 981 463 
L 3150 463 
L 3150 3906 
L 981 3906 
L 981 463 
z
" transform="scale(0.015625)"/>
        <path id="SegoeUISymbol-441" d="M 519 0 
L 519 4369 
L 3613 4369 
L 3613 0 
L 519 0 
z
M 981 463 
L 3150 463 
L 3150 3906 
L 981 3906 
L 981 463 
z
" transform="scale(0.015625)"/>
        <path id="SegoeUISymbol-438" d="M 519 0 
L 519 4369 
L 3613 4369 
L 3613 0 
L 519 0 
z
M 981 463 
L 3150 463 
L 3150 3906 
L 981 3906 
L 981 463 
z
" transform="scale(0.015625)"/>
        <path id="SegoeUISymbol-447" d="M 519 0 
L 519 4369 
L 3613 4369 
L 3613 0 
L 519 0 
z
M 981 463 
L 3150 463 
L 3150 3906 
L 981 3906 
L 981 463 
z
" transform="scale(0.015625)"/>
        <path id="SegoeUISymbol-435" d="M 519 0 
L 519 4369 
L 3613 4369 
L 3613 0 
L 519 0 
z
M 981 463 
L 3150 463 
L 3150 3906 
L 981 3906 
L 981 463 
z
" transform="scale(0.015625)"/>
        <path id="SegoeUISymbol-43a" d="M 519 0 
L 519 4369 
L 3613 4369 
L 3613 0 
L 519 0 
z
M 981 463 
L 3150 463 
L 3150 3906 
L 981 3906 
L 981 463 
z
" transform="scale(0.015625)"/>
        <path id="SegoeUISymbol-44f" d="M 519 0 
L 519 4369 
L 3613 4369 
L 3613 0 
L 519 0 
z
M 981 463 
L 3150 463 
L 3150 3906 
L 981 3906 
L 981 463 
z
" transform="scale(0.015625)"/>
       </defs>
       <use xlink:href="#SegoeUISymbol-41a"/>
       <use xlink:href="#SegoeUISymbol-43b" transform="translate(64.550781 0)"/>
       <use xlink:href="#SegoeUISymbol-430" transform="translate(129.101562 0)"/>
       <use xlink:href="#SegoeUISymbol-441" transform="translate(193.652344 0)"/>
       <use xlink:href="#SegoeUISymbol-441" transform="translate(258.203125 0)"/>
       <use xlink:href="#SegoeUISymbol-438" transform="translate(322.753906 0)"/>
       <use xlink:href="#SegoeUISymbol-447" transform="translate(387.304688 0)"/>
       <use xlink:href="#SegoeUISymbol-435" transform="translate(451.855469 0)"/>
       <use xlink:href="#SegoeUISymbol-441" transform="translate(516.40625 0)"/>
       <use xlink:href="#SegoeUISymbol-43a" transform="translate(580.957031 0)"/>
       <use xlink:href="#SegoeUISymbol-430" transform="translate(645.507812 0)"/>
       <use xlink:href="#SegoeUISymbol-44f" transform="translate(710.058594 0)"/>
      </g>
     </g>
    </g>
    <g id="xtick_2">
     <g id="line2d_2">
      <g>
       <use xlink:href="#m304025a7c0" x="270.177309" y="518.341625" style="fill: #212121; stroke: #212121; stroke-width: 0.8"/>
      </g>
     </g>
     <g id="text_2">
      <!-- Джаз -->
      <g style="fill: #212121" transform="translate(255.976996 533.985063) scale(0.11 -0.11)">
       <defs>
        <path id="SegoeUISymbol-414" d="M 519 0 
L 519 4369 
L 3613 4369 
L 3613 0 
L 519 0 
z
M 981 463 
L 3150 463 
L 3150 3906 
L 981 3906 
L 981 463 
z
" transform="scale(0.015625)"/>
        <path id="SegoeUISymbol-436" d="M 519 0 
L 519 4369 
L 3613 4369 
L 3613 0 
L 519 0 
z
M 981 463 
L 3150 463 
L 3150 3906 
L 981 3906 
L 981 463 
z
" transform="scale(0.015625)"/>
        <path id="SegoeUISymbol-437" d="M 519 0 
L 519 4369 
L 3613 4369 
L 3613 0 
L 519 0 
z
M 981 463 
L 3150 463 
L 3150 3906 
L 981 3906 
L 981 463 
z
" transform="scale(0.015625)"/>
       </defs>
       <use xlink:href="#SegoeUISymbol-414"/>
       <use xlink:href="#SegoeUISymbol-436" transform="translate(64.550781 0)"/>
       <use xlink:href="#SegoeUISymbol-430" transform="translate(129.101562 0)"/>
       <use xlink:href="#SegoeUISymbol-437" transform="translate(193.652344 0)"/>
      </g>
     </g>
    </g>
    <g id="xtick_3">
     <g id="line2d_3">
      <g>
       <use xlink:href="#m304025a7c0" x="399.69375" y="518.341625" style="fill: #212121; stroke: #212121; stroke-width: 0.8"/>
      </g>
     </g>
     <g id="text_3">
      <!-- Электронная -->
      <g style="fill: #212121" transform="translate(360.642891 533.985063) scale(0.11 -0.11)">
       <defs>
        <path id="SegoeUISymbol-42d" d="M 519 0 
L 519 4369 
L 3613 4369 
L 3613 0 
L 519 0 
z
M 981 463 
L 3150 463 
L 3150 3906 
L 981 3906 
L 981 463 
z
" transform="scale(0.015625)"/>
        <path id="SegoeUISymbol-442" d="M 519 0 
L 519 4369 
L 3613 4369 
L 3613 0 
L 519 0 
z
M 981 463 
L 3150 463 
L 3150 3906 
L 981 3906 
L 981 463 
z
" transform="scale(0.015625)"/>
        <path id="SegoeUISymbol-440" d="M 519 0 
L 519 4369 
L 3613 4369 
L 3613 0 
L 519 0 
z
M 981 463 
L 3150 463 
L 3150 3906 
L 981 3906 
L 981 463 
z
" transform="scale(0.015625)"/>
        <path id="SegoeUISymbol-43e" d="M 519 0 
L 519 4369 
L 3613 4369 
L 3613 0 
L 519 0 
z
M 981 463 
L 3150 463 
L 3150 3906 
L 981 3906 
L 981 463 
z
" transform="scale(0.015625)"/>
        <path id="SegoeUISymbol-43d" d="M 519 0 
L 519 4369 
L 3613 4369 
L 3613 0 
L 519 0 
z
M 981 463 
L 3150 463 
L 3150 3906 
L 981 3906 
L 981 463 
z
" transform="scale(0.015625)"/>
       </defs>
       <use xlink:href="#SegoeUISymbol-42d"/>
       <use xlink:href="#SegoeUISymbol-43b" transform="translate(64.550781 0)"/>
       <use xlink:href="#SegoeUISymbol-435" transform="translate(129.101562 0)"/>
       <use xlink:href="#SegoeUISymbol-43a" transform="translate(193.652344 0)"/>
       <use xlink:href="#SegoeUISymbol-442" transform="translate(258.203125 0)"/>
       <use xlink:href="#SegoeUISymbol-440" transform="translate(322.753906 0)"/>
       <use xlink:href="#SegoeUISymbol-43e" transform="translate(387.304688 0)"/>
       <use xlink:href="#SegoeUISymbol-43d" transform="translate(451.855469 0)"/>
       <use xlink:href="#SegoeUISymbol-43d" transform="translate(516.40625 0)"/>
       <use xlink:href="#SegoeUISymbol-430" transform="translate(580.957031 0)"/>
       <use xlink:href="#SegoeUISymbol-44f" transform="translate(645.507812 0)"/>
      </g>
     </g>
    </g>
    <g id="xtick_4">
     <g id="line2d_4">
      <g>
       <use xlink:href="#m304025a7c0" x="529.210191" y="518.341625" style="fill: #212121; stroke: #212121; stroke-width: 0.8"/>
      </g>
     </g>
     <g id="text_4">
      <!-- Фолк -->
      <g style="fill: #212121" transform="translate(515.009879 533.985063) scale(0.11 -0.11)">
       <defs>
        <path id="SegoeUISymbol-424" d="M 519 0 
L 519 4369 
L 3613 4369 
L 3613 0 
L 519 0 
z
M 981 463 
L 3150 463 
L 3150 3906 
L 981 3906 
L 981 463 
z
" transform="scale(0.015625)"/>
       </defs>
       <use xlink:href="#SegoeUISymbol-424"/>
       <use xlink:href="#SegoeUISymbol-43e" transform="translate(64.550781 0)"/>
       <use xlink:href="#SegoeUISymbol-43b" transform="translate(129.101562 0)"/>
       <use xlink:href="#SegoeUISymbol-43a" transform="translate(193.652344 0)"/>
      </g>
     </g>
    </g>
    <g id="xtick_5">
     <g id="line2d_5">
      <g>
       <use xlink:href="#m304025a7c0" x="658.726632" y="518.341625" style="fill: #212121; stroke: #212121; stroke-width: 0.8"/>
      </g>
     </g>
     <g id="text_5">
      <!-- Экспериментальная -->
      <g style="fill: #212121" transform="translate(598.375304 533.985063) scale(0.11 -0.11)">
       <defs>
        <path id="SegoeUISymbol-43f" d="M 519 0 
L 519 4369 
L 3613 4369 
L 3613 0 
L 519 0 
z
M 981 463 
L 3150 463 
L 3150 3906 
L 981 3906 
L 981 463 
z
" transform="scale(0.015625)"/>
        <path id="SegoeUISymbol-43c" d="M 519 0 
L 519 4369 
L 3613 4369 
L 3613 0 
L 519 0 
z
M 981 463 
L 3150 463 
L 3150 3906 
L 981 3906 
L 981 463 
z
" transform="scale(0.015625)"/>
        <path id="SegoeUISymbol-44c" d="M 519 0 
L 519 4369 
L 3613 4369 
L 3613 0 
L 519 0 
z
M 981 463 
L 3150 463 
L 3150 3906 
L 981 3906 
L 981 463 
z
" transform="scale(0.015625)"/>
       </defs>
       <use xlink:href="#SegoeUISymbol-42d"/>
       <use xlink:href="#SegoeUISymbol-43a" transform="translate(64.550781 0)"/>
       <use xlink:href="#SegoeUISymbol-441" transform="translate(129.101562 0)"/>
       <use xlink:href="#SegoeUISymbol-43f" transform="translate(193.652344 0)"/>
       <use xlink:href="#SegoeUISymbol-435" transform="translate(258.203125 0)"/>
       <use xlink:href="#SegoeUISymbol-440" transform="translate(322.753906 0)"/>
       <use xlink:href="#SegoeUISymbol-438" transform="translate(387.304688 0)"/>
       <use xlink:href="#SegoeUISymbol-43c" transform="translate(451.855469 0)"/>
       <use xlink:href="#SegoeUISymbol-435" transform="translate(516.40625 0)"/>
       <use xlink:href="#SegoeUISymbol-43d" transform="translate(580.957031 0)"/>
       <use xlink:href="#SegoeUISymbol-442" transform="translate(645.507812 0)"/>
       <use xlink:href="#SegoeUISymbol-430" transform="translate(710.058594 0)"/>
       <use xlink:href="#SegoeUISymbol-43b" transform="translate(774.609375 0)"/>
       <use xlink:href="#SegoeUISymbol-44c" transform="translate(839.160156 0)"/>
       <use xlink:href="#SegoeUISymbol-43d" transform="translate(903.710938 0)"/>
       <use xlink:href="#SegoeUISymbol-430" transform="translate(968.261719 0)"/>
       <use xlink:href="#SegoeUISymbol-44f" transform="translate(1032.8125 0)"/>
      </g>
     </g>
    </g>
    <g id="text_6">
     <!-- Музыкальные жанры -->
     <g style="fill: #212121" transform="translate(336.085313 549.398812) scale(0.12 -0.12)">
      <defs>
       <path id="SegoeUISymbol-41c" d="M 519 0 
L 519 4369 
L 3613 4369 
L 3613 0 
L 519 0 
z
M 981 463 
L 3150 463 
L 3150 3906 
L 981 3906 
L 981 463 
z
" transform="scale(0.015625)"/>
       <path id="SegoeUISymbol-443" d="M 519 0 
L 519 4369 
L 3613 4369 
L 3613 0 
L 519 0 
z
M 981 463 
L 3150 463 
L 3150 3906 
L 981 3906 
L 981 463 
z
" transform="scale(0.015625)"/>
       <path id="SegoeUISymbol-44b" d="M 519 0 
L 519 4369 
L 3613 4369 
L 3613 0 
L 519 0 
z
M 981 463 
L 3150 463 
L 3150 3906 
L 981 3906 
L 981 463 
z
" transform="scale(0.015625)"/>
       <path id="SegoeUISymbol-20" transform="scale(0.015625)"/>
      </defs>
      <use xlink:href="#SegoeUISymbol-41c"/>
      <use xlink:href="#SegoeUISymbol-443" transform="translate(64.550781 0)"/>
      <use xlink:href="#SegoeUISymbol-437" transform="translate(129.101562 0)"/>
      <use xlink:href="#SegoeUISymbol-44b" transform="translate(193.652344 0)"/>
      <use xlink:href="#SegoeUISymbol-43a" transform="translate(258.203125 0)"/>
      <use xlink:href="#SegoeUISymbol-430" transform="translate(322.753906 0)"/>
      <use xlink:href="#SegoeUISymbol-43b" transform="translate(387.304688 0)"/>
      <use xlink:href="#SegoeUISymbol-44c" transform="translate(451.855469 0)"/>
      <use xlink:href="#SegoeUISymbol-43d" transform="translate(516.40625 0)"/>
      <use xlink:href="#SegoeUISymbol-44b" transform="translate(580.957031 0)"/>
      <use xlink:href="#SegoeUISymbol-435" transform="translate(645.507812 0)"/>
      <use xlink:href="#SegoeUISymbol-20" transform="translate(710.058594 0)"/>
      <use xlink:href="#SegoeUISymbol-436" transform="translate(737.451172 0)"/>
      <use xlink:href="#SegoeUISymbol-430" transform="translate(802.001953 0)"/>
      <use xlink:href="#SegoeUISymbol-43d" transform="translate(866.552734 0)"/>
      <use xlink:href="#SegoeUISymbol-440" transform="translate(931.103516 0)"/>
      <use xlink:href="#SegoeUISymbol-44b" transform="translate(995.654297 0)"/>
     </g>
    </g>
   </g>
   <g id="matplotlib.axis_2">
    <g id="ytick_1">
     <g id="line2d_6">
      <path d="M 64.89375 518.341625 
L 734.49375 518.341625 
" clip-path="url(#p823f8dd620)" style="fill: none; stroke-dasharray: 2.59,1.12; stroke-dashoffset: 0; stroke: #b0b0b0; stroke-opacity: 0.3; stroke-width: 0.7"/>
     </g>
     <g id="line2d_7">
      <defs>
       <path id="m9fad5d6ffc" d="M 0 0 
L -4 0 
" style="stroke: #212121; stroke-width: 0.8"/>
      </defs>
      <g>
       <use xlink:href="#m9fad5d6ffc" x="64.89375" y="518.341625" style="fill: #212121; stroke: #212121; stroke-width: 0.8"/>
      </g>
     </g>
     <g id="text_7">
      <!-- 0.0 -->
      <g style="fill: #212121" transform="translate(44.44375 522.043187) scale(0.1 -0.1)">
       <defs>
        <path id="SegoeUISymbol-30" d="M 3188 2259 
Q 3188 1697 3086 1262 
Q 2984 828 2792 529 
Q 2600 231 2320 76 
Q 2041 -78 1684 -78 
Q 1347 -78 1083 70 
Q 819 219 637 503 
Q 456 788 362 1202 
Q 269 1616 269 2150 
Q 269 2738 367 3188 
Q 466 3638 656 3942 
Q 847 4247 1130 4401 
Q 1413 4556 1778 4556 
Q 3188 4556 3188 2259 
z
M 2663 2209 
Q 2663 4122 1753 4122 
Q 794 4122 794 2175 
Q 794 359 1734 359 
Q 2663 359 2663 2209 
z
" transform="scale(0.015625)"/>
        <path id="SegoeUISymbol-2e" d="M 697 -69 
Q 553 -69 451 34 
Q 350 138 350 281 
Q 350 425 451 529 
Q 553 634 697 634 
Q 844 634 947 529 
Q 1050 425 1050 281 
Q 1050 138 947 34 
Q 844 -69 697 -69 
z
" transform="scale(0.015625)"/>
       </defs>
       <use xlink:href="#SegoeUISymbol-30"/>
       <use xlink:href="#SegoeUISymbol-2e" transform="translate(53.90625 0)"/>
       <use xlink:href="#SegoeUISymbol-30" transform="translate(75.585938 0)"/>
      </g>
     </g>
    </g>
    <g id="ytick_2">
     <g id="line2d_8">
      <path d="M 64.89375 459.012987 
L 734.49375 459.012987 
" clip-path="url(#p823f8dd620)" style="fill: none; stroke-dasharray: 2.59,1.12; stroke-dashoffset: 0; stroke: #b0b0b0; stroke-opacity: 0.3; stroke-width: 0.7"/>
     </g>
     <g id="line2d_9">
      <g>
       <use xlink:href="#m9fad5d6ffc" x="64.89375" y="459.012987" style="fill: #212121; stroke: #212121; stroke-width: 0.8"/>
      </g>
     </g>
     <g id="text_8">
      <!-- 0.1 -->
      <g style="fill: #212121" transform="translate(44.44375 462.714549) scale(0.1 -0.1)">
       <defs>
        <path id="SegoeUISymbol-31" d="M 2263 0 
L 1750 0 
L 1750 3872 
Q 1691 3813 1577 3736 
Q 1463 3659 1320 3584 
Q 1178 3509 1020 3443 
Q 863 3378 713 3341 
L 713 3859 
Q 881 3906 1070 3986 
Q 1259 4066 1442 4164 
Q 1625 4263 1787 4370 
Q 1950 4478 2069 4581 
L 2263 4581 
L 2263 0 
z
" transform="scale(0.015625)"/>
       </defs>
       <use xlink:href="#SegoeUISymbol-30"/>
       <use xlink:href="#SegoeUISymbol-2e" transform="translate(53.90625 0)"/>
       <use xlink:href="#SegoeUISymbol-31" transform="translate(75.585938 0)"/>
      </g>
     </g>
    </g>
    <g id="ytick_3">
     <g id="line2d_10">
      <path d="M 64.89375 399.684349 
L 734.49375 399.684349 
" clip-path="url(#p823f8dd620)" style="fill: none; stroke-dasharray: 2.59,1.12; stroke-dashoffset: 0; stroke: #b0b0b0; stroke-opacity: 0.3; stroke-width: 0.7"/>
     </g>
     <g id="line2d_11">
      <g>
       <use xlink:href="#m9fad5d6ffc" x="64.89375" y="399.684349" style="fill: #212121; stroke: #212121; stroke-width: 0.8"/>
      </g>
     </g>
     <g id="text_9">
      <!-- 0.2 -->
      <g style="fill: #212121" transform="translate(44.44375 403.385911) scale(0.1 -0.1)">
       <defs>
        <path id="SegoeUISymbol-32" d="M 2413 3306 
Q 2413 3513 2348 3666 
Q 2284 3819 2173 3920 
Q 2063 4022 1913 4072 
Q 1763 4122 1588 4122 
Q 1438 4122 1294 4081 
Q 1150 4041 1014 3969 
Q 878 3897 751 3797 
Q 625 3697 516 3575 
L 516 4125 
Q 731 4334 998 4445 
Q 1266 4556 1650 4556 
Q 1925 4556 2159 4476 
Q 2394 4397 2566 4244 
Q 2738 4091 2836 3866 
Q 2934 3641 2934 3350 
Q 2934 3084 2873 2868 
Q 2813 2653 2689 2462 
Q 2566 2272 2378 2097 
Q 2191 1922 1938 1741 
Q 1622 1516 1417 1356 
Q 1213 1197 1092 1058 
Q 972 919 923 780 
Q 875 641 875 459 
L 3106 459 
L 3106 0 
L 341 0 
L 341 222 
Q 341 509 403 728 
Q 466 947 609 1144 
Q 753 1341 986 1537 
Q 1219 1734 1556 1981 
Q 1800 2156 1964 2315 
Q 2128 2475 2228 2634 
Q 2328 2794 2370 2958 
Q 2413 3122 2413 3306 
z
" transform="scale(0.015625)"/>
       </defs>
       <use xlink:href="#SegoeUISymbol-30"/>
       <use xlink:href="#SegoeUISymbol-2e" transform="translate(53.90625 0)"/>
       <use xlink:href="#SegoeUISymbol-32" transform="translate(75.585938 0)"/>
      </g>
     </g>
    </g>
    <g id="ytick_4">
     <g id="line2d_12">
      <path d="M 64.89375 340.355711 
L 734.49375 340.355711 
" clip-path="url(#p823f8dd620)" style="fill: none; stroke-dasharray: 2.59,1.12; stroke-dashoffset: 0; stroke: #b0b0b0; stroke-opacity: 0.3; stroke-width: 0.7"/>
     </g>
     <g id="line2d_13">
      <g>
       <use xlink:href="#m9fad5d6ffc" x="64.89375" y="340.355711" style="fill: #212121; stroke: #212121; stroke-width: 0.8"/>
      </g>
     </g>
     <g id="text_10">
      <!-- 0.3 -->
      <g style="fill: #212121" transform="translate(44.44375 344.057273) scale(0.1 -0.1)">
       <defs>
        <path id="SegoeUISymbol-33" d="M 2978 1269 
Q 2978 966 2864 717 
Q 2750 469 2542 292 
Q 2334 116 2043 19 
Q 1753 -78 1403 -78 
Q 763 -78 384 166 
L 384 716 
Q 838 359 1422 359 
Q 1656 359 1845 418 
Q 2034 478 2170 590 
Q 2306 703 2379 862 
Q 2453 1022 2453 1222 
Q 2453 2100 1203 2100 
L 831 2100 
L 831 2534 
L 1184 2534 
Q 2291 2534 2291 3359 
Q 2291 4122 1447 4122 
Q 972 4122 556 3803 
L 556 4300 
Q 984 4556 1575 4556 
Q 1856 4556 2084 4478 
Q 2313 4400 2475 4259 
Q 2638 4119 2727 3922 
Q 2816 3725 2816 3488 
Q 2816 2603 1922 2350 
L 1922 2338 
Q 2150 2313 2344 2227 
Q 2538 2141 2678 2003 
Q 2819 1866 2898 1680 
Q 2978 1494 2978 1269 
z
" transform="scale(0.015625)"/>
       </defs>
       <use xlink:href="#SegoeUISymbol-30"/>
       <use xlink:href="#SegoeUISymbol-2e" transform="translate(53.90625 0)"/>
       <use xlink:href="#SegoeUISymbol-33" transform="translate(75.585938 0)"/>
      </g>
     </g>
    </g>
    <g id="ytick_5">
     <g id="line2d_14">
      <path d="M 64.89375 281.027073 
L 734.49375 281.027073 
" clip-path="url(#p823f8dd620)" style="fill: none; stroke-dasharray: 2.59,1.12; stroke-dashoffset: 0; stroke: #b0b0b0; stroke-opacity: 0.3; stroke-width: 0.7"/>
     </g>
     <g id="line2d_15">
      <g>
       <use xlink:href="#m9fad5d6ffc" x="64.89375" y="281.027073" style="fill: #212121; stroke: #212121; stroke-width: 0.8"/>
      </g>
     </g>
     <g id="text_11">
      <!-- 0.4 -->
      <g style="fill: #212121" transform="translate(44.44375 284.728635) scale(0.1 -0.1)">
       <defs>
        <path id="SegoeUISymbol-34" d="M 2656 4481 
L 2656 1522 
L 3231 1522 
L 3231 1053 
L 2656 1053 
L 2656 0 
L 2150 0 
L 2150 1053 
L 44 1053 
L 44 1497 
Q 338 1828 638 2204 
Q 938 2581 1211 2968 
Q 1484 3356 1717 3742 
Q 1950 4128 2109 4481 
L 2656 4481 
z
M 622 1522 
L 2150 1522 
L 2150 3716 
Q 1916 3306 1706 2984 
Q 1497 2663 1308 2400 
Q 1119 2138 947 1925 
Q 775 1713 622 1522 
z
" transform="scale(0.015625)"/>
       </defs>
       <use xlink:href="#SegoeUISymbol-30"/>
       <use xlink:href="#SegoeUISymbol-2e" transform="translate(53.90625 0)"/>
       <use xlink:href="#SegoeUISymbol-34" transform="translate(75.585938 0)"/>
      </g>
     </g>
    </g>
    <g id="ytick_6">
     <g id="line2d_16">
      <path d="M 64.89375 221.698435 
L 734.49375 221.698435 
" clip-path="url(#p823f8dd620)" style="fill: none; stroke-dasharray: 2.59,1.12; stroke-dashoffset: 0; stroke: #b0b0b0; stroke-opacity: 0.3; stroke-width: 0.7"/>
     </g>
     <g id="line2d_17">
      <g>
       <use xlink:href="#m9fad5d6ffc" x="64.89375" y="221.698435" style="fill: #212121; stroke: #212121; stroke-width: 0.8"/>
      </g>
     </g>
     <g id="text_12">
      <!-- 0.5 -->
      <g style="fill: #212121" transform="translate(44.44375 225.399997) scale(0.1 -0.1)">
       <defs>
        <path id="SegoeUISymbol-35" d="M 3028 1369 
Q 3028 1041 2915 775 
Q 2803 509 2595 318 
Q 2388 128 2094 25 
Q 1800 -78 1441 -78 
Q 816 -78 513 109 
L 513 653 
Q 969 359 1447 359 
Q 1691 359 1886 431 
Q 2081 503 2218 631 
Q 2356 759 2429 940 
Q 2503 1122 2503 1338 
Q 2503 1775 2209 2023 
Q 1916 2272 1356 2272 
Q 1266 2272 1166 2269 
Q 1066 2266 966 2261 
Q 866 2256 770 2250 
Q 675 2244 597 2234 
L 750 4481 
L 2822 4481 
L 2822 4019 
L 1194 4019 
L 1103 2703 
Q 1203 2709 1315 2714 
Q 1428 2719 1516 2719 
Q 1872 2719 2153 2625 
Q 2434 2531 2629 2357 
Q 2825 2184 2926 1932 
Q 3028 1681 3028 1369 
z
" transform="scale(0.015625)"/>
       </defs>
       <use xlink:href="#SegoeUISymbol-30"/>
       <use xlink:href="#SegoeUISymbol-2e" transform="translate(53.90625 0)"/>
       <use xlink:href="#SegoeUISymbol-35" transform="translate(75.585938 0)"/>
      </g>
     </g>
    </g>
    <g id="ytick_7">
     <g id="line2d_18">
      <path d="M 64.89375 162.369797 
L 734.49375 162.369797 
" clip-path="url(#p823f8dd620)" style="fill: none; stroke-dasharray: 2.59,1.12; stroke-dashoffset: 0; stroke: #b0b0b0; stroke-opacity: 0.3; stroke-width: 0.7"/>
     </g>
     <g id="line2d_19">
      <g>
       <use xlink:href="#m9fad5d6ffc" x="64.89375" y="162.369797" style="fill: #212121; stroke: #212121; stroke-width: 0.8"/>
      </g>
     </g>
     <g id="text_13">
      <!-- 0.6 -->
      <g style="fill: #212121" transform="translate(44.44375 166.071359) scale(0.1 -0.1)">
       <defs>
        <path id="SegoeUISymbol-36" d="M 3194 1422 
Q 3194 1094 3087 819 
Q 2981 544 2793 344 
Q 2606 144 2347 33 
Q 2088 -78 1784 -78 
Q 1447 -78 1180 62 
Q 913 203 727 467 
Q 541 731 444 1112 
Q 347 1494 347 1972 
Q 347 2556 476 3032 
Q 606 3509 845 3848 
Q 1084 4188 1421 4372 
Q 1759 4556 2175 4556 
Q 2638 4556 2919 4428 
L 2919 3944 
Q 2572 4122 2188 4122 
Q 1888 4122 1647 3987 
Q 1406 3853 1234 3608 
Q 1063 3363 970 3016 
Q 878 2669 878 2244 
L 891 2244 
Q 1200 2803 1913 2803 
Q 2206 2803 2442 2703 
Q 2678 2603 2845 2420 
Q 3013 2238 3103 1984 
Q 3194 1731 3194 1422 
z
M 2669 1356 
Q 2669 1591 2609 1778 
Q 2550 1966 2439 2097 
Q 2328 2228 2165 2298 
Q 2003 2369 1797 2369 
Q 1606 2369 1443 2297 
Q 1281 2225 1162 2101 
Q 1044 1978 976 1814 
Q 909 1650 909 1466 
Q 909 1234 975 1032 
Q 1041 831 1159 681 
Q 1278 531 1442 445 
Q 1606 359 1806 359 
Q 2000 359 2159 432 
Q 2319 506 2431 637 
Q 2544 769 2606 951 
Q 2669 1134 2669 1356 
z
" transform="scale(0.015625)"/>
       </defs>
       <use xlink:href="#SegoeUISymbol-30"/>
       <use xlink:href="#SegoeUISymbol-2e" transform="translate(53.90625 0)"/>
       <use xlink:href="#SegoeUISymbol-36" transform="translate(75.585938 0)"/>
      </g>
     </g>
    </g>
    <g id="ytick_8">
     <g id="line2d_20">
      <path d="M 64.89375 103.041159 
L 734.49375 103.041159 
" clip-path="url(#p823f8dd620)" style="fill: none; stroke-dasharray: 2.59,1.12; stroke-dashoffset: 0; stroke: #b0b0b0; stroke-opacity: 0.3; stroke-width: 0.7"/>
     </g>
     <g id="line2d_21">
      <g>
       <use xlink:href="#m9fad5d6ffc" x="64.89375" y="103.041159" style="fill: #212121; stroke: #212121; stroke-width: 0.8"/>
      </g>
     </g>
     <g id="text_14">
      <!-- 0.7 -->
      <g style="fill: #212121" transform="translate(44.44375 106.742721) scale(0.1 -0.1)">
       <defs>
        <path id="SegoeUISymbol-37" d="M 3156 4184 
Q 3053 4006 2908 3740 
Q 2763 3475 2600 3144 
Q 2438 2813 2269 2431 
Q 2100 2050 1953 1644 
Q 1806 1238 1695 820 
Q 1584 403 1534 0 
L 984 0 
Q 1041 400 1158 817 
Q 1275 1234 1423 1636 
Q 1572 2038 1737 2409 
Q 1903 2781 2059 3093 
Q 2216 3406 2345 3645 
Q 2475 3884 2553 4019 
L 306 4019 
L 306 4481 
L 3156 4481 
L 3156 4184 
z
" transform="scale(0.015625)"/>
       </defs>
       <use xlink:href="#SegoeUISymbol-30"/>
       <use xlink:href="#SegoeUISymbol-2e" transform="translate(53.90625 0)"/>
       <use xlink:href="#SegoeUISymbol-37" transform="translate(75.585938 0)"/>
      </g>
     </g>
    </g>
    <g id="text_15">
     <!-- Средняя эстетическая новизна -->
     <g style="fill: #212121" transform="translate(37.68375 400.561625) rotate(-90) scale(0.12 -0.12)">
      <defs>
       <path id="SegoeUISymbol-421" d="M 519 0 
L 519 4369 
L 3613 4369 
L 3613 0 
L 519 0 
z
M 981 463 
L 3150 463 
L 3150 3906 
L 981 3906 
L 981 463 
z
" transform="scale(0.015625)"/>
       <path id="SegoeUISymbol-434" d="M 519 0 
L 519 4369 
L 3613 4369 
L 3613 0 
L 519 0 
z
M 981 463 
L 3150 463 
L 3150 3906 
L 981 3906 
L 981 463 
z
" transform="scale(0.015625)"/>
       <path id="SegoeUISymbol-44d" d="M 519 0 
L 519 4369 
L 3613 4369 
L 3613 0 
L 519 0 
z
M 981 463 
L 3150 463 
L 3150 3906 
L 981 3906 
L 981 463 
z
" transform="scale(0.015625)"/>
       <path id="SegoeUISymbol-432" d="M 519 0 
L 519 4369 
L 3613 4369 
L 3613 0 
L 519 0 
z
M 981 463 
L 3150 463 
L 3150 3906 
L 981 3906 
L 981 463 
z
" transform="scale(0.015625)"/>
      </defs>
      <use xlink:href="#SegoeUISymbol-421"/>
      <use xlink:href="#SegoeUISymbol-440" transform="translate(64.550781 0)"/>
      <use xlink:href="#SegoeUISymbol-435" transform="translate(129.101562 0)"/>
      <use xlink:href="#SegoeUISymbol-434" transform="translate(193.652344 0)"/>
      <use xlink:href="#SegoeUISymbol-43d" transform="translate(258.203125 0)"/>
      <use xlink:href="#SegoeUISymbol-44f" transform="translate(322.753906 0)"/>
      <use xlink:href="#SegoeUISymbol-44f" transform="translate(387.304688 0)"/>
      <use xlink:href="#SegoeUISymbol-20" transform="translate(451.855469 0)"/>
      <use xlink:href="#SegoeUISymbol-44d" transform="translate(479.248047 0)"/>
      <use xlink:href="#SegoeUISymbol-441" transform="translate(543.798828 0)"/>
      <use xlink:href="#SegoeUISymbol-442" transform="translate(608.349609 0)"/>
      <use xlink:href="#SegoeUISymbol-435" transform="translate(672.900391 0)"/>
      <use xlink:href="#SegoeUISymbol-442" transform="translate(737.451172 0)"/>
      <use xlink:href="#SegoeUISymbol-438" transform="translate(802.001953 0)"/>
      <use xlink:href="#SegoeUISymbol-447" transform="translate(866.552734 0)"/>
      <use xlink:href="#SegoeUISymbol-435" transform="translate(931.103516 0)"/>
      <use xlink:href="#SegoeUISymbol-441" transform="translate(995.654297 0)"/>
      <use xlink:href="#SegoeUISymbol-43a" transform="translate(1060.205078 0)"/>
      <use xlink:href="#SegoeUISymbol-430" transform="translate(1124.755859 0)"/>
      <use xlink:href="#SegoeUISymbol-44f" transform="translate(1189.306641 0)"/>
      <use xlink:href="#SegoeUISymbol-20" transform="translate(1253.857422 0)"/>
      <use xlink:href="#SegoeUISymbol-43d" transform="translate(1281.25 0)"/>
      <use xlink:href="#SegoeUISymbol-43e" transform="translate(1345.800781 0)"/>
      <use xlink:href="#SegoeUISymbol-432" transform="translate(1410.351562 0)"/>
      <use xlink:href="#SegoeUISymbol-438" transform="translate(1474.902344 0)"/>
      <use xlink:href="#SegoeUISymbol-437" transform="translate(1539.453125 0)"/>
      <use xlink:href="#SegoeUISymbol-43d" transform="translate(1604.003906 0)"/>
      <use xlink:href="#SegoeUISymbol-430" transform="translate(1668.554688 0)"/>
     </g>
    </g>
   </g>
   <g id="patch_13">
    <path d="M 64.89375 518.341625 
L 64.89375 74.821625 
" style="fill: none; stroke: #212121; stroke-width: 0.8; stroke-linejoin: miter; stroke-linecap: square"/>
   </g>
   <g id="patch_14">
    <path d="M 64.89375 518.341625 
L 734.49375 518.341625 
" style="fill: none; stroke: #212121; stroke-width: 0.8; stroke-linejoin: miter; stroke-linecap: square"/>
   </g>
   <g id="text_16">
    <!-- 0.54 -->
    <g style="fill: #212121" transform="translate(109.74221 188.709138) scale(0.09 -0.09)">
     <use xlink:href="#SegoeUISymbol-30"/>
     <use xlink:href="#SegoeUISymbol-2e" transform="translate(53.90625 0)"/>
     <use xlink:href="#SegoeUISymbol-35" transform="translate(75.585938 0)"/>
     <use xlink:href="#SegoeUISymbol-34" transform="translate(129.492188 0)"/>
    </g>
   </g>
   <g id="text_17">
    <!-- 0.59 -->
    <g style="fill: #212121" transform="translate(239.258651 158.662923) scale(0.09 -0.09)">
     <defs>
      <path id="SegoeUISymbol-39" d="M 3138 2509 
Q 3138 1894 3016 1414 
Q 2894 934 2659 601 
Q 2425 269 2087 95 
Q 1750 -78 1319 -78 
Q 875 -78 538 78 
L 538 569 
Q 909 359 1331 359 
Q 1634 359 1873 484 
Q 2113 609 2278 848 
Q 2444 1088 2531 1438 
Q 2619 1788 2619 2241 
L 2606 2241 
Q 2319 1663 1606 1663 
Q 1319 1663 1078 1764 
Q 838 1866 663 2052 
Q 488 2238 391 2494 
Q 294 2750 294 3059 
Q 294 3391 401 3666 
Q 509 3941 701 4139 
Q 894 4338 1158 4447 
Q 1422 4556 1734 4556 
Q 2072 4556 2333 4420 
Q 2594 4284 2772 4023 
Q 2950 3763 3044 3381 
Q 3138 3000 3138 2509 
z
M 2584 2969 
Q 2584 3228 2517 3440 
Q 2450 3653 2331 3804 
Q 2213 3956 2048 4039 
Q 1884 4122 1691 4122 
Q 1506 4122 1347 4048 
Q 1188 3975 1070 3842 
Q 953 3709 886 3526 
Q 819 3344 819 3128 
Q 819 2891 883 2703 
Q 947 2516 1065 2386 
Q 1184 2256 1351 2187 
Q 1519 2119 1722 2119 
Q 1900 2119 2058 2186 
Q 2216 2253 2333 2367 
Q 2450 2481 2517 2636 
Q 2584 2791 2584 2969 
z
" transform="scale(0.015625)"/>
     </defs>
     <use xlink:href="#SegoeUISymbol-30"/>
     <use xlink:href="#SegoeUISymbol-2e" transform="translate(53.90625 0)"/>
     <use xlink:href="#SegoeUISymbol-35" transform="translate(75.585938 0)"/>
     <use xlink:href="#SegoeUISymbol-39" transform="translate(129.492188 0)"/>
    </g>
   </g>
   <g id="text_18">
    <!-- 0.64 -->
    <g style="fill: #212121" transform="translate(368.775092 131.406106) scale(0.09 -0.09)">
     <use xlink:href="#SegoeUISymbol-30"/>
     <use xlink:href="#SegoeUISymbol-2e" transform="translate(53.90625 0)"/>
     <use xlink:href="#SegoeUISymbol-36" transform="translate(75.585938 0)"/>
     <use xlink:href="#SegoeUISymbol-34" transform="translate(129.492188 0)"/>
    </g>
   </g>
   <g id="text_19">
    <!-- 0.68 -->
    <g style="fill: #212121" transform="translate(498.291533 109.505758) scale(0.09 -0.09)">
     <defs>
      <path id="SegoeUISymbol-38" d="M 281 1250 
Q 281 1428 337 1608 
Q 394 1788 498 1944 
Q 603 2100 758 2228 
Q 913 2356 1109 2431 
Q 819 2594 647 2848 
Q 475 3103 475 3413 
Q 475 3659 570 3868 
Q 666 4078 834 4231 
Q 1003 4384 1234 4470 
Q 1466 4556 1734 4556 
Q 2006 4556 2237 4468 
Q 2469 4381 2637 4228 
Q 2806 4075 2900 3865 
Q 2994 3656 2994 3413 
Q 2994 3103 2822 2848 
Q 2650 2594 2366 2431 
Q 2559 2356 2712 2228 
Q 2866 2100 2970 1944 
Q 3075 1788 3131 1608 
Q 3188 1428 3188 1250 
Q 3188 956 3081 712 
Q 2975 469 2783 295 
Q 2591 122 2323 25 
Q 2056 -72 1734 -72 
Q 1416 -72 1150 25 
Q 884 122 690 295 
Q 497 469 389 712 
Q 281 956 281 1250 
z
M 838 1294 
Q 838 1084 902 915 
Q 966 747 1083 628 
Q 1200 509 1367 445 
Q 1534 381 1738 381 
Q 1934 381 2100 447 
Q 2266 513 2386 631 
Q 2506 750 2573 919 
Q 2641 1088 2641 1294 
Q 2641 1481 2577 1645 
Q 2513 1809 2394 1934 
Q 2275 2059 2109 2131 
Q 1944 2203 1738 2203 
Q 1544 2203 1380 2136 
Q 1216 2069 1095 1948 
Q 975 1828 906 1661 
Q 838 1494 838 1294 
z
M 997 3372 
Q 997 3213 1055 3077 
Q 1113 2941 1214 2839 
Q 1316 2738 1450 2680 
Q 1584 2622 1738 2622 
Q 1891 2622 2027 2681 
Q 2163 2741 2263 2842 
Q 2363 2944 2422 3080 
Q 2481 3216 2481 3372 
Q 2481 3534 2423 3671 
Q 2366 3809 2266 3909 
Q 2166 4009 2030 4067 
Q 1894 4125 1738 4125 
Q 1572 4125 1436 4065 
Q 1300 4006 1201 3904 
Q 1103 3803 1050 3665 
Q 997 3528 997 3372 
z
" transform="scale(0.015625)"/>
     </defs>
     <use xlink:href="#SegoeUISymbol-30"/>
     <use xlink:href="#SegoeUISymbol-2e" transform="translate(53.90625 0)"/>
     <use xlink:href="#SegoeUISymbol-36" transform="translate(75.585938 0)"/>
     <use xlink:href="#SegoeUISymbol-38" transform="translate(129.492188 0)"/>
    </g>
   </g>
   <g id="text_20">
    <!-- 0.71 -->
    <g style="fill: #212121" transform="translate(627.807974 87.938761) scale(0.09 -0.09)">
     <use xlink:href="#SegoeUISymbol-30"/>
     <use xlink:href="#SegoeUISymbol-2e" transform="translate(53.90625 0)"/>
     <use xlink:href="#SegoeUISymbol-37" transform="translate(75.585938 0)"/>
     <use xlink:href="#SegoeUISymbol-31" transform="translate(129.492188 0)"/>
    </g>
   </g>
   <g id="text_21">
    <!-- 0.37 -->
    <g style="fill: #212121" transform="translate(155.072964 291.87002) scale(0.09 -0.09)">
     <use xlink:href="#SegoeUISymbol-30"/>
     <use xlink:href="#SegoeUISymbol-2e" transform="translate(53.90625 0)"/>
     <use xlink:href="#SegoeUISymbol-33" transform="translate(75.585938 0)"/>
     <use xlink:href="#SegoeUISymbol-37" transform="translate(129.492188 0)"/>
    </g>
   </g>
   <g id="text_22">
    <!-- 0.45 -->
    <g style="fill: #212121" transform="translate(284.589405 244.826211) scale(0.09 -0.09)">
     <use xlink:href="#SegoeUISymbol-30"/>
     <use xlink:href="#SegoeUISymbol-2e" transform="translate(53.90625 0)"/>
     <use xlink:href="#SegoeUISymbol-34" transform="translate(75.585938 0)"/>
     <use xlink:href="#SegoeUISymbol-35" transform="translate(129.492188 0)"/>
    </g>
   </g>
   <g id="text_23">
    <!-- 0.42 -->
    <g style="fill: #212121" transform="translate(414.105846 259.884345) scale(0.09 -0.09)">
     <use xlink:href="#SegoeUISymbol-30"/>
     <use xlink:href="#SegoeUISymbol-2e" transform="translate(53.90625 0)"/>
     <use xlink:href="#SegoeUISymbol-34" transform="translate(75.585938 0)"/>
     <use xlink:href="#SegoeUISymbol-32" transform="translate(129.492188 0)"/>
    </g>
   </g>
   <g id="text_24">
    <!-- 0.51 -->
    <g style="fill: #212121" transform="translate(543.622287 206.231391) scale(0.09 -0.09)">
     <use xlink:href="#SegoeUISymbol-30"/>
     <use xlink:href="#SegoeUISymbol-2e" transform="translate(53.90625 0)"/>
     <use xlink:href="#SegoeUISymbol-35" transform="translate(75.585938 0)"/>
     <use xlink:href="#SegoeUISymbol-31" transform="translate(129.492188 0)"/>
    </g>
   </g>
   <g id="text_25">
    <!-- 0.43 -->
    <g style="fill: #212121" transform="translate(673.138728 254.170423) scale(0.09 -0.09)">
     <use xlink:href="#SegoeUISymbol-30"/>
     <use xlink:href="#SegoeUISymbol-2e" transform="translate(53.90625 0)"/>
     <use xlink:href="#SegoeUISymbol-34" transform="translate(75.585938 0)"/>
     <use xlink:href="#SegoeUISymbol-33" transform="translate(129.492188 0)"/>
    </g>
   </g>
   <g id="text_26">
    <!-- График 6: Сравнение эстетической новизны по музыкальным жанрам -->
    <g style="fill: #212121" transform="translate(64.89375 39.164375) scale(0.14 -0.14)">
     <defs>
      <path id="SegoeUISymbol-413" d="M 519 0 
L 519 4369 
L 3613 4369 
L 3613 0 
L 519 0 
z
M 981 463 
L 3150 463 
L 3150 3906 
L 981 3906 
L 981 463 
z
" transform="scale(0.015625)"/>
      <path id="SegoeUISymbol-444" d="M 519 0 
L 519 4369 
L 3613 4369 
L 3613 0 
L 519 0 
z
M 981 463 
L 3150 463 
L 3150 3906 
L 981 3906 
L 981 463 
z
" transform="scale(0.015625)"/>
      <path id="SegoeUISymbol-3a" d="M 697 2575 
Q 553 2575 451 2678 
Q 350 2781 350 2925 
Q 350 3069 451 3169 
Q 553 3269 697 3269 
Q 844 3269 947 3169 
Q 1050 3069 1050 2925 
Q 1050 2781 947 2678 
Q 844 2575 697 2575 
z
M 697 -69 
Q 553 -69 451 34 
Q 350 138 350 281 
Q 350 425 451 529 
Q 553 634 697 634 
Q 844 634 947 529 
Q 1050 425 1050 281 
Q 1050 138 947 34 
Q 844 -69 697 -69 
z
" transform="scale(0.015625)"/>
      <path id="SegoeUISymbol-439" d="M 519 0 
L 519 4369 
L 3613 4369 
L 3613 0 
L 519 0 
z
M 981 463 
L 3150 463 
L 3150 3906 
L 981 3906 
L 981 463 
z
" transform="scale(0.015625)"/>
     </defs>
     <use xlink:href="#SegoeUISymbol-413"/>
     <use xlink:href="#SegoeUISymbol-440" transform="translate(64.550781 0)"/>
     <use xlink:href="#SegoeUISymbol-430" transform="translate(129.101562 0)"/>
     <use xlink:href="#SegoeUISymbol-444" transform="translate(193.652344 0)"/>
     <use xlink:href="#SegoeUISymbol-438" transform="translate(258.203125 0)"/>
     <use xlink:href="#SegoeUISymbol-43a" transform="translate(322.753906 0)"/>
     <use xlink:href="#SegoeUISymbol-20" transform="translate(387.304688 0)"/>
     <use xlink:href="#SegoeUISymbol-36" transform="translate(414.697266 0)"/>
     <use xlink:href="#SegoeUISymbol-3a" transform="translate(468.603516 0)"/>
     <use xlink:href="#SegoeUISymbol-20" transform="translate(490.283203 0)"/>
     <use xlink:href="#SegoeUISymbol-421" transform="translate(517.675781 0)"/>
     <use xlink:href="#SegoeUISymbol-440" transform="translate(582.226562 0)"/>
     <use xlink:href="#SegoeUISymbol-430" transform="translate(646.777344 0)"/>
     <use xlink:href="#SegoeUISymbol-432" transform="translate(711.328125 0)"/>
     <use xlink:href="#SegoeUISymbol-43d" transform="translate(775.878906 0)"/>
     <use xlink:href="#SegoeUISymbol-435" transform="translate(840.429688 0)"/>
     <use xlink:href="#SegoeUISymbol-43d" transform="translate(904.980469 0)"/>
     <use xlink:href="#SegoeUISymbol-438" transform="translate(969.53125 0)"/>
     <use xlink:href="#SegoeUISymbol-435" transform="translate(1034.082031 0)"/>
     <use xlink:href="#SegoeUISymbol-20" transform="translate(1098.632812 0)"/>
     <use xlink:href="#SegoeUISymbol-44d" transform="translate(1126.025391 0)"/>
     <use xlink:href="#SegoeUISymbol-441" transform="translate(1190.576172 0)"/>
     <use xlink:href="#SegoeUISymbol-442" transform="translate(1255.126953 0)"/>
     <use xlink:href="#SegoeUISymbol-435" transform="translate(1319.677734 0)"/>
     <use xlink:href="#SegoeUISymbol-442" transform="translate(1384.228516 0)"/>
     <use xlink:href="#SegoeUISymbol-438" transform="translate(1448.779297 0)"/>
     <use xlink:href="#SegoeUISymbol-447" transform="translate(1513.330078 0)"/>
     <use xlink:href="#SegoeUISymbol-435" transform="translate(1577.880859 0)"/>
     <use xlink:href="#SegoeUISymbol-441" transform="translate(1642.431641 0)"/>
     <use xlink:href="#SegoeUISymbol-43a" transform="translate(1706.982422 0)"/>
     <use xlink:href="#SegoeUISymbol-43e" transform="translate(1771.533203 0)"/>
     <use xlink:href="#SegoeUISymbol-439" transform="translate(1836.083984 0)"/>
     <use xlink:href="#SegoeUISymbol-20" transform="translate(1900.634766 0)"/>
     <use xlink:href="#SegoeUISymbol-43d" transform="translate(1928.027344 0)"/>
     <use xlink:href="#SegoeUISymbol-43e" transform="translate(1992.578125 0)"/>
     <use xlink:href="#SegoeUISymbol-432" transform="translate(2057.128906 0)"/>
     <use xlink:href="#SegoeUISymbol-438" transform="translate(2121.679688 0)"/>
     <use xlink:href="#SegoeUISymbol-437" transform="translate(2186.230469 0)"/>
     <use xlink:href="#SegoeUISymbol-43d" transform="translate(2250.78125 0)"/>
     <use xlink:href="#SegoeUISymbol-44b" transform="translate(2315.332031 0)"/>
     <use xlink:href="#SegoeUISymbol-20" transform="translate(2379.882812 0)"/>
     <use xlink:href="#SegoeUISymbol-43f" transform="translate(2407.275391 0)"/>
     <use xlink:href="#SegoeUISymbol-43e" transform="translate(2471.826172 0)"/>
     <use xlink:href="#SegoeUISymbol-20" transform="translate(2536.376953 0)"/>
     <use xlink:href="#SegoeUISymbol-43c" transform="translate(2563.769531 0)"/>
     <use xlink:href="#SegoeUISymbol-443" transform="translate(2628.320312 0)"/>
     <use xlink:href="#SegoeUISymbol-437" transform="translate(2692.871094 0)"/>
     <use xlink:href="#SegoeUISymbol-44b" transform="translate(2757.421875 0)"/>
     <use xlink:href="#SegoeUISymbol-43a" transform="translate(2821.972656 0)"/>
     <use xlink:href="#SegoeUISymbol-430" transform="translate(2886.523438 0)"/>
     <use xlink:href="#SegoeUISymbol-43b" transform="translate(2951.074219 0)"/>
     <use xlink:href="#SegoeUISymbol-44c" transform="translate(3015.625 0)"/>
     <use xlink:href="#SegoeUISymbol-43d" transform="translate(3080.175781 0)"/>
     <use xlink:href="#SegoeUISymbol-44b" transform="translate(3144.726562 0)"/>
     <use xlink:href="#SegoeUISymbol-43c" transform="translate(3209.277344 0)"/>
     <use xlink:href="#SegoeUISymbol-20" transform="translate(3273.828125 0)"/>
     <use xlink:href="#SegoeUISymbol-436" transform="translate(3301.220703 0)"/>
     <use xlink:href="#SegoeUISymbol-430" transform="translate(3365.771484 0)"/>
     <use xlink:href="#SegoeUISymbol-43d" transform="translate(3430.322266 0)"/>
     <use xlink:href="#SegoeUISymbol-440" transform="translate(3494.873047 0)"/>
     <use xlink:href="#SegoeUISymbol-430" transform="translate(3559.423828 0)"/>
     <use xlink:href="#SegoeUISymbol-43c" transform="translate(3623.974609 0)"/>
    </g>
    <!-- Человеческое vs ИИ-генерированное творчество -->
    <g style="fill: #212121" transform="translate(64.89375 54.821625) scale(0.14 -0.14)">
     <defs>
      <path id="SegoeUISymbol-427" d="M 519 0 
L 519 4369 
L 3613 4369 
L 3613 0 
L 519 0 
z
M 981 463 
L 3150 463 
L 3150 3906 
L 981 3906 
L 981 463 
z
" transform="scale(0.015625)"/>
      <path id="SegoeUISymbol-76" d="M 3034 3200 
L 1759 0 
L 1256 0 
L 44 3200 
L 606 3200 
L 1419 875 
Q 1509 619 1531 428 
L 1544 428 
Q 1575 669 1644 863 
L 2494 3200 
L 3034 3200 
z
" transform="scale(0.015625)"/>
      <path id="SegoeUISymbol-73" d="M 325 116 
L 325 666 
Q 744 356 1247 356 
Q 1922 356 1922 806 
Q 1922 934 1864 1023 
Q 1806 1113 1707 1181 
Q 1609 1250 1476 1304 
Q 1344 1359 1191 1419 
Q 978 1503 817 1589 
Q 656 1675 548 1783 
Q 441 1891 386 2028 
Q 331 2166 331 2350 
Q 331 2575 434 2748 
Q 538 2922 709 3039 
Q 881 3156 1101 3215 
Q 1322 3275 1556 3275 
Q 1972 3275 2300 3131 
L 2300 2613 
Q 1947 2844 1488 2844 
Q 1344 2844 1228 2811 
Q 1113 2778 1030 2718 
Q 947 2659 901 2576 
Q 856 2494 856 2394 
Q 856 2269 901 2184 
Q 947 2100 1034 2034 
Q 1122 1969 1247 1916 
Q 1372 1863 1531 1800 
Q 1744 1719 1912 1633 
Q 2081 1547 2200 1439 
Q 2319 1331 2383 1190 
Q 2447 1050 2447 856 
Q 2447 619 2342 444 
Q 2238 269 2063 153 
Q 1888 38 1659 -18 
Q 1431 -75 1181 -75 
Q 688 -75 325 116 
z
" transform="scale(0.015625)"/>
      <path id="SegoeUISymbol-418" d="M 519 0 
L 519 4369 
L 3613 4369 
L 3613 0 
L 519 0 
z
M 981 463 
L 3150 463 
L 3150 3906 
L 981 3906 
L 981 463 
z
" transform="scale(0.015625)"/>
      <path id="SegoeUISymbol-2d" d="M 2156 1581 
L 450 1581 
L 450 1984 
L 2156 1984 
L 2156 1581 
z
" transform="scale(0.015625)"/>
      <path id="SegoeUISymbol-433" d="M 519 0 
L 519 4369 
L 3613 4369 
L 3613 0 
L 519 0 
z
M 981 463 
L 3150 463 
L 3150 3906 
L 981 3906 
L 981 463 
z
" transform="scale(0.015625)"/>
     </defs>
     <use xlink:href="#SegoeUISymbol-427"/>
     <use xlink:href="#SegoeUISymbol-435" transform="translate(64.550781 0)"/>
     <use xlink:href="#SegoeUISymbol-43b" transform="translate(129.101562 0)"/>
     <use xlink:href="#SegoeUISymbol-43e" transform="translate(193.652344 0)"/>
     <use xlink:href="#SegoeUISymbol-432" transform="translate(258.203125 0)"/>
     <use xlink:href="#SegoeUISymbol-435" transform="translate(322.753906 0)"/>
     <use xlink:href="#SegoeUISymbol-447" transform="translate(387.304688 0)"/>
     <use xlink:href="#SegoeUISymbol-435" transform="translate(451.855469 0)"/>
     <use xlink:href="#SegoeUISymbol-441" transform="translate(516.40625 0)"/>
     <use xlink:href="#SegoeUISymbol-43a" transform="translate(580.957031 0)"/>
     <use xlink:href="#SegoeUISymbol-43e" transform="translate(645.507812 0)"/>
     <use xlink:href="#SegoeUISymbol-435" transform="translate(710.058594 0)"/>
     <use xlink:href="#SegoeUISymbol-20" transform="translate(774.609375 0)"/>
     <use xlink:href="#SegoeUISymbol-76" transform="translate(802.001953 0)"/>
     <use xlink:href="#SegoeUISymbol-73" transform="translate(849.902344 0)"/>
     <use xlink:href="#SegoeUISymbol-20" transform="translate(892.333984 0)"/>
     <use xlink:href="#SegoeUISymbol-418" transform="translate(919.726562 0)"/>
     <use xlink:href="#SegoeUISymbol-418" transform="translate(984.277344 0)"/>
     <use xlink:href="#SegoeUISymbol-2d" transform="translate(1048.828125 0)"/>
     <use xlink:href="#SegoeUISymbol-433" transform="translate(1088.818359 0)"/>
     <use xlink:href="#SegoeUISymbol-435" transform="translate(1153.369141 0)"/>
     <use xlink:href="#SegoeUISymbol-43d" transform="translate(1217.919922 0)"/>
     <use xlink:href="#SegoeUISymbol-435" transform="translate(1282.470703 0)"/>
     <use xlink:href="#SegoeUISymbol-440" transform="translate(1347.021484 0)"/>
     <use xlink:href="#SegoeUISymbol-438" transform="translate(1411.572266 0)"/>
     <use xlink:href="#SegoeUISymbol-440" transform="translate(1476.123047 0)"/>
     <use xlink:href="#SegoeUISymbol-43e" transform="translate(1540.673828 0)"/>
     <use xlink:href="#SegoeUISymbol-432" transform="translate(1605.224609 0)"/>
     <use xlink:href="#SegoeUISymbol-430" transform="translate(1669.775391 0)"/>
     <use xlink:href="#SegoeUISymbol-43d" transform="translate(1734.326172 0)"/>
     <use xlink:href="#SegoeUISymbol-43d" transform="translate(1798.876953 0)"/>
     <use xlink:href="#SegoeUISymbol-43e" transform="translate(1863.427734 0)"/>
     <use xlink:href="#SegoeUISymbol-435" transform="translate(1927.978516 0)"/>
     <use xlink:href="#SegoeUISymbol-20" transform="translate(1992.529297 0)"/>
     <use xlink:href="#SegoeUISymbol-442" transform="translate(2019.921875 0)"/>
     <use xlink:href="#SegoeUISymbol-432" transform="translate(2084.472656 0)"/>
     <use xlink:href="#SegoeUISymbol-43e" transform="translate(2149.023438 0)"/>
     <use xlink:href="#SegoeUISymbol-440" transform="translate(2213.574219 0)"/>
     <use xlink:href="#SegoeUISymbol-447" transform="translate(2278.125 0)"/>
     <use xlink:href="#SegoeUISymbol-435" transform="translate(2342.675781 0)"/>
     <use xlink:href="#SegoeUISymbol-441" transform="translate(2407.226562 0)"/>
     <use xlink:href="#SegoeUISymbol-442" transform="translate(2471.777344 0)"/>
     <use xlink:href="#SegoeUISymbol-432" transform="translate(2536.328125 0)"/>
     <use xlink:href="#SegoeUISymbol-43e" transform="translate(2600.878906 0)"/>
    </g>
   </g>
   <g id="legend_1">
    <g id="patch_15">
     <path d="M 71.89375 112.227875 
L 149.076563 112.227875 
Q 151.076563 112.227875 151.076563 110.227875 
L 151.076563 81.821625 
Q 151.076563 79.821625 149.076563 79.821625 
L 71.89375 79.821625 
Q 69.89375 79.821625 69.89375 81.821625 
L 69.89375 110.227875 
Q 69.89375 112.227875 71.89375 112.227875 
z
" style="fill: #ffffff; opacity: 0.9; stroke: #cccccc; stroke-linejoin: miter"/>
    </g>
    <g id="patch_16">
     <path d="M 73.89375 91.22475 
L 93.89375 91.22475 
L 93.89375 84.22475 
L 73.89375 84.22475 
z
" style="fill: #ffc107; opacity: 0.8; stroke: #000000; stroke-width: 0.5; stroke-linejoin: miter"/>
    </g>
    <g id="text_27">
     <!-- Человек -->
     <g style="fill: #212121" transform="translate(101.89375 91.22475) scale(0.1 -0.1)">
      <use xlink:href="#SegoeUISymbol-427"/>
      <use xlink:href="#SegoeUISymbol-435" transform="translate(64.550781 0)"/>
      <use xlink:href="#SegoeUISymbol-43b" transform="translate(129.101562 0)"/>
      <use xlink:href="#SegoeUISymbol-43e" transform="translate(193.652344 0)"/>
      <use xlink:href="#SegoeUISymbol-432" transform="translate(258.203125 0)"/>
      <use xlink:href="#SegoeUISymbol-435" transform="translate(322.753906 0)"/>
      <use xlink:href="#SegoeUISymbol-43a" transform="translate(387.304688 0)"/>
     </g>
    </g>
    <g id="patch_17">
     <path d="M 73.89375 105.927875 
L 93.89375 105.927875 
L 93.89375 98.927875 
L 73.89375 98.927875 
z
" style="fill: #00acc1; opacity: 0.8; stroke: #000000; stroke-width: 0.5; stroke-linejoin: miter"/>
    </g>
    <g id="text_28">
     <!-- ИИ -->
     <g style="fill: #212121" transform="translate(101.89375 105.927875) scale(0.1 -0.1)">
      <use xlink:href="#SegoeUISymbol-418"/>
      <use xlink:href="#SegoeUISymbol-418" transform="translate(64.550781 0)"/>
     </g>
    </g>
   </g>
  </g>
  <g id="text_29">
   <!-- Дуплей М.И. | ORCID: 0009-0007-7605-539X -->
   <g style="fill: #808080; opacity: 0.6" transform="translate(632.709375 573.823813) scale(0.09 -0.09)">
    <defs>
     <path id="SegoeUISymbol-7c" d="M 1000 -1506 
L 538 -1506 
L 538 4894 
L 1000 4894 
L 1000 -1506 
z
" transform="scale(0.015625)"/>
     <path id="SegoeUISymbol-4f" d="M 2394 -75 
Q 1441 -75 867 553 
Q 294 1181 294 2188 
Q 294 3269 878 3912 
Q 1463 4556 2469 4556 
Q 3397 4556 3964 3931 
Q 4531 3306 4531 2297 
Q 4531 1200 3950 562 
Q 3369 -75 2394 -75 
z
M 2431 4081 
Q 1725 4081 1284 3572 
Q 844 3063 844 2234 
Q 844 1406 1273 901 
Q 1703 397 2394 397 
Q 3131 397 3556 878 
Q 3981 1359 3981 2225 
Q 3981 3113 3568 3597 
Q 3156 4081 2431 4081 
z
" transform="scale(0.015625)"/>
     <path id="SegoeUISymbol-52" d="M 3800 0 
L 3175 0 
L 2425 1256 
Q 2322 1431 2225 1554 
Q 2128 1678 2026 1756 
Q 1925 1834 1808 1870 
Q 1691 1906 1544 1906 
L 1113 1906 
L 1113 0 
L 588 0 
L 588 4481 
L 1925 4481 
Q 2219 4481 2467 4407 
Q 2716 4334 2898 4184 
Q 3081 4034 3184 3811 
Q 3288 3588 3288 3288 
Q 3288 3053 3217 2858 
Q 3147 2663 3017 2509 
Q 2888 2356 2705 2248 
Q 2522 2141 2294 2081 
L 2294 2069 
Q 2406 2019 2489 1955 
Q 2572 1891 2647 1803 
Q 2722 1716 2795 1605 
Q 2869 1494 2959 1347 
L 3800 0 
z
M 1113 4006 
L 1113 2381 
L 1825 2381 
Q 2022 2381 2189 2440 
Q 2356 2500 2478 2611 
Q 2600 2722 2669 2883 
Q 2738 3044 2738 3244 
Q 2738 3603 2505 3804 
Q 2272 4006 1831 4006 
L 1113 4006 
z
" transform="scale(0.015625)"/>
     <path id="SegoeUISymbol-43" d="M 3638 188 
Q 3141 -75 2400 -75 
Q 1444 -75 869 540 
Q 294 1156 294 2156 
Q 294 3231 941 3893 
Q 1588 4556 2581 4556 
Q 3219 4556 3638 4372 
L 3638 3813 
Q 3156 4081 2575 4081 
Q 1803 4081 1323 3565 
Q 844 3050 844 2188 
Q 844 1369 1292 883 
Q 1741 397 2469 397 
Q 3144 397 3638 697 
L 3638 188 
z
" transform="scale(0.015625)"/>
     <path id="SegoeUISymbol-49" d="M 1113 0 
L 588 0 
L 588 4481 
L 1113 4481 
L 1113 0 
z
" transform="scale(0.015625)"/>
     <path id="SegoeUISymbol-44" d="M 588 0 
L 588 4481 
L 1825 4481 
Q 4194 4481 4194 2297 
Q 4194 1259 3536 629 
Q 2878 0 1775 0 
L 588 0 
z
M 1113 4006 
L 1113 475 
L 1781 475 
Q 2663 475 3153 947 
Q 3644 1419 3644 2284 
Q 3644 4006 1813 4006 
L 1113 4006 
z
" transform="scale(0.015625)"/>
     <path id="SegoeUISymbol-58" d="M 3681 0 
L 3041 0 
L 2009 1716 
Q 1963 1794 1906 1938 
L 1894 1938 
Q 1863 1866 1788 1716 
L 725 0 
L 81 0 
L 1581 2253 
L 200 4481 
L 844 4481 
L 1759 2906 
Q 1850 2750 1919 2594 
L 1931 2594 
Q 2031 2800 2106 2919 
L 3059 4481 
L 3663 4481 
L 2253 2259 
L 3681 0 
z
" transform="scale(0.015625)"/>
    </defs>
    <use xlink:href="#SegoeUISymbol-414"/>
    <use xlink:href="#SegoeUISymbol-443" transform="translate(64.550781 0)"/>
    <use xlink:href="#SegoeUISymbol-43f" transform="translate(129.101562 0)"/>
    <use xlink:href="#SegoeUISymbol-43b" transform="translate(193.652344 0)"/>
    <use xlink:href="#SegoeUISymbol-435" transform="translate(258.203125 0)"/>
    <use xlink:href="#SegoeUISymbol-439" transform="translate(322.753906 0)"/>
    <use xlink:href="#SegoeUISymbol-20" transform="translate(387.304688 0)"/>
    <use xlink:href="#SegoeUISymbol-41c" transform="translate(414.697266 0)"/>
    <use xlink:href="#SegoeUISymbol-2e" transform="translate(479.248047 0)"/>
    <use xlink:href="#SegoeUISymbol-418" transform="translate(500.927734 0)"/>
    <use xlink:href="#SegoeUISymbol-2e" transform="translate(565.478516 0)"/>
    <use xlink:href="#SegoeUISymbol-20" transform="translate(587.158203 0)"/>
    <use xlink:href="#SegoeUISymbol-7c" transform="translate(614.550781 0)"/>
    <use xlink:href="#SegoeUISymbol-20" transform="translate(638.476562 0)"/>
    <use xlink:href="#SegoeUISymbol-4f" transform="translate(665.869141 0)"/>
    <use xlink:href="#SegoeUISymbol-52" transform="translate(741.259766 0)"/>
    <use xlink:href="#SegoeUISymbol-43" transform="translate(799.699219 0)"/>
    <use xlink:href="#SegoeUISymbol-49" transform="translate(861.613281 0)"/>
    <use xlink:href="#SegoeUISymbol-44" transform="translate(888.224609 0)"/>
    <use xlink:href="#SegoeUISymbol-3a" transform="translate(958.341797 0)"/>
    <use xlink:href="#SegoeUISymbol-20" transform="translate(980.021484 0)"/>
    <use xlink:href="#SegoeUISymbol-30" transform="translate(1007.414062 0)"/>
    <use xlink:href="#SegoeUISymbol-30" transform="translate(1061.320312 0)"/>
    <use xlink:href="#SegoeUISymbol-30" transform="translate(1115.226562 0)"/>
    <use xlink:href="#SegoeUISymbol-39" transform="translate(1169.132812 0)"/>
    <use xlink:href="#SegoeUISymbol-2d" transform="translate(1223.039062 0)"/>
    <use xlink:href="#SegoeUISymbol-30" transform="translate(1263.029297 0)"/>
    <use xlink:href="#SegoeUISymbol-30" transform="translate(1316.935547 0)"/>
    <use xlink:href="#SegoeUISymbol-30" transform="translate(1370.841797 0)"/>
    <use xlink:href="#SegoeUISymbol-37" transform="translate(1424.748047 0)"/>
    <use xlink:href="#SegoeUISymbol-2d" transform="translate(1478.654297 0)"/>
    <use xlink:href="#SegoeUISymbol-37" transform="translate(1518.644531 0)"/>
    <use xlink:href="#SegoeUISymbol-36" transform="translate(1572.550781 0)"/>
    <use xlink:href="#SegoeUISymbol-30" transform="translate(1626.457031 0)"/>
    <use xlink:href="#SegoeUISymbol-35" transform="translate(1680.363281 0)"/>
    <use xlink:href="#SegoeUISymbol-2d" transform="translate(1734.269531 0)"/>
    <use xlink:href="#SegoeUISymbol-35" transform="translate(1774.259766 0)"/>
    <use xlink:href="#SegoeUISymbol-33" transform="translate(1828.166016 0)"/>
    <use xlink:href="#SegoeUISymbol-39" transform="translate(1882.072266 0)"/>
    <use xlink:href="#SegoeUISymbol-58" transform="translate(1935.978516 0)"/>
   </g>
  </g>
 </g>
 <defs>
  <clipPath id="p823f8dd620">
   <rect x="64.89375" y="74.821625" width="669.6" height="443.52"/>
  </clipPath>
 </defs>
</svg>
